<svg width="24" height="24" viewBox="0 0 24 24" fill="none" xmlns="http://www.w3.org/2000/svg">
<path d="M11.7644 9.16503C11.843 8.94303 12.157 8.94303 12.2356 9.16504L13.6608 13.1871C13.686 13.2581 13.7419 13.314 13.8129 13.3392L17.835 14.7644C18.057 14.843 18.057 15.157 17.835 15.2356L13.8129 16.6608C13.7419 16.686 13.686 16.7419 13.6608 16.8129L12.2356 20.835C12.157 21.057 11.843 21.057 11.7644 20.835L10.3392 16.8129C10.314 16.7419 10.2581 16.686 10.1871 16.6608L6.16503 15.2356C5.94303 15.157 5.94303 14.843 6.16504 14.7644L10.1871 13.3392C10.2581 13.314 10.314 13.2581 10.3392 13.1871L11.7644 9.16503Z" stroke="currentColor" stroke-width="2"/>
<circle cx="19" cy="5" r="2" stroke="currentColor" stroke-width="2"/>
<path d="M5 5V9M3 7H7" stroke="currentColor" stroke-width="2" stroke-linecap="round"/>
<path fill-rule="evenodd" clip-rule="evenodd" d="M10.8613 8.73047C11.2968 7.75474 12.7012 7.75476 13.1367 8.73047L13.1768 8.83105L14.4824 12.5156L18.168 13.8223C19.2778 14.2157 19.2778 15.7843 18.168 16.1777L14.4824 17.4834L13.1768 21.1689C12.7832 22.2785 11.2147 22.2787 10.8213 21.1689L9.51465 17.4834L5.83008 16.1777C4.72062 15.7842 4.72069 14.2158 5.83008 13.8223L9.51465 12.5156L10.8213 8.83105L10.8613 8.73047ZM11.2812 13.5215C11.1553 13.8765 10.8755 14.1563 10.5205 14.2822L8.49316 15L10.5205 15.7178C10.8313 15.828 11.0839 16.0564 11.2266 16.3496L11.2812 16.4785L11.999 18.5049L12.7168 16.4785C12.8427 16.1235 13.1226 15.8437 13.4775 15.7178L15.5039 15L13.4775 14.2822C13.1226 14.1563 12.8427 13.8765 12.7168 13.5215L11.999 11.4941L11.2812 13.5215Z" fill="currentColor"/>
<path d="M5 4C5.55228 4 6 4.44772 6 5V6H7C7.55228 6 8 6.44772 8 7C8 7.55228 7.55228 8 7 8H6V9C6 9.55228 5.55228 10 5 10C4.44772 10 4 9.55228 4 9V8H3C2.44772 8 2 7.55228 2 7C2 6.44772 2.44772 6 3 6H4V5C4 4.44772 4.44772 4 5 4Z" fill="currentColor"/>
<path fill-rule="evenodd" clip-rule="evenodd" d="M19 2C20.6569 2 22 3.34315 22 5C22 6.65685 20.6569 8 19 8C17.3431 8 16 6.65685 16 5C16 3.34315 17.3431 2 19 2ZM19 4C18.4477 4 18 4.44772 18 5C18 5.55228 18.4477 6 19 6C19.5523 6 20 5.55228 20 5C20 4.44772 19.5523 4 19 4Z" fill="currentColor"/>
</svg>
