<svg width="24" height="24" viewBox="0 0 24 24" fill="none" xmlns="http://www.w3.org/2000/svg">
<path d="M12 2C15.866 2 19 5.13401 19 9C19 11.2298 17.956 13.2154 16.335 14.4951C16.0912 14.6876 16 14.9043 16 15.0605V16.5C16 17.317 15.6061 18.0399 15 18.4961V19.5C15 20.8807 13.8807 22 12.5 22H11.5C10.1193 22 9 20.8807 9 19.5V18.4961C8.39389 18.0399 8 17.317 8 16.5V15.0605C8 14.9043 7.90878 14.6876 7.66504 14.4951C6.04404 13.2154 5 11.2298 5 9C5 5.13401 8.13401 2 12 2ZM11 19V19.5C11 19.7761 11.2239 20 11.5 20H12.5C12.7761 20 13 19.7761 13 19.5V19H11ZM12 4C9.23858 4 7 6.23858 7 9C7 10.591 7.7426 12.0075 8.9043 12.9248C9.50088 13.3958 10 14.1461 10 15.0605V16.5C10 16.7761 10.2239 17 10.5 17H13.5C13.7761 17 14 16.7761 14 16.5V15.0605C14 14.1461 14.4991 13.3958 15.0957 12.9248C16.2574 12.0075 17 10.591 17 9C17 6.23858 14.7614 4 12 4Z" fill="currentColor"/>
</svg>
