<svg width="24" height="24" viewBox="0 0 24 24" fill="none" xmlns="http://www.w3.org/2000/svg">
<path d="M10 6C10.5523 6 11 6.44772 11 7C11 7.55228 10.5523 8 10 8H6.5C5.67157 8 5 8.67157 5 9.5V14C5 14.8284 5.67157 15.5 6.5 15.5H7.75C8.44036 15.5 9 16.0596 9 16.75V18.2725L11.7646 15.8154L11.8535 15.7441C12.0675 15.5864 12.3269 15.5001 12.5947 15.5H14.5C15.3284 15.5 16 14.8284 16 14C16 13.4477 16.4477 13 17 13C17.5523 13 18 13.4477 18 14C18 15.933 16.433 17.5 14.5 17.5H12.8809L9.08008 20.8779C8.27395 21.5939 7.00006 21.0217 7 19.9434V17.5H6.5C4.567 17.5 3 15.933 3 14V9.5C3 7.567 4.567 6 6.5 6H10Z" fill="currentColor"/>
<path d="M17 2.5C17.5523 2.5 18 2.94772 18 3.5V6H20.5C21.0523 6 21.5 6.44772 21.5 7C21.5 7.55228 21.0523 8 20.5 8H18V10.5C18 11.0523 17.5523 11.5 17 11.5C16.4477 11.5 16 11.0523 16 10.5V8H13.5C12.9477 8 12.5 7.55228 12.5 7C12.5 6.44772 12.9477 6 13.5 6H16V3.5C16 2.94772 16.4477 2.5 17 2.5Z" fill="currentColor"/>
</svg>
