<svg width="12" height="12" viewBox="0 0 12 12" fill="none" xmlns="http://www.w3.org/2000/svg">
    <path d="M2.74838 12C2.00171 12 1.40438 11.7813 0.956375 11.344C0.519042 10.9067 0.300375 10.32 0.300375 9.584C0.300375 8.80533 0.529708 8.20267 0.988375 7.776C1.45771 7.33867 2.14571 7.12 3.05238 7.12H3.99638V5.36H3.05238C2.14571 5.36 1.45771 5.14667 0.988375 4.72C0.529708 4.28267 0.300375 3.67467 0.300375 2.896C0.300375 2.16 0.519042 1.57333 0.956375 1.136C1.40438 0.698666 2.00171 0.48 2.74838 0.48C3.34571 0.48 3.81504 0.591999 4.15638 0.815999C4.50838 1.04 4.75371 1.33867 4.89238 1.712C5.04171 2.08533 5.11638 2.496 5.11638 2.944V4.272H6.87638V2.944C6.87638 2.496 6.94571 2.08533 7.08438 1.712C7.23371 1.33867 7.47904 1.04 7.82038 0.815999C8.17238 0.591999 8.64704 0.48 9.24438 0.48C9.99104 0.48 10.583 0.698666 11.0204 1.136C11.4684 1.57333 11.6924 2.16 11.6924 2.896C11.6924 3.67467 11.463 4.28267 11.0044 4.72C10.5457 5.14667 9.85771 5.36 8.94038 5.36H7.99638V7.12H8.94038C9.85771 7.12 10.5457 7.33867 11.0044 7.776C11.463 8.20267 11.6924 8.80533 11.6924 9.584C11.6924 10.32 11.4684 10.9067 11.0204 11.344C10.583 11.7813 9.99104 12 9.24438 12C8.64704 12 8.17238 11.888 7.82038 11.664C7.47904 11.44 7.23371 11.1413 7.08438 10.768C6.94571 10.3947 6.87638 9.984 6.87638 9.536V8.208H5.11638V9.536C5.11638 9.984 5.04171 10.3947 4.89238 10.768C4.75371 11.1413 4.50838 11.44 4.15638 11.664C3.81504 11.888 3.34571 12 2.74838 12ZM7.99638 2.912V4.272H8.94038C9.50571 4.272 9.91638 4.16 10.1724 3.936C10.4284 3.70133 10.5564 3.35467 10.5564 2.896C10.5564 2.42667 10.4284 2.09067 10.1724 1.888C9.92704 1.68533 9.61771 1.584 9.24438 1.584C8.82838 1.584 8.51371 1.70667 8.30037 1.952C8.09771 2.18667 7.99638 2.50667 7.99638 2.912ZM3.05238 4.272H3.99638V2.912C3.99638 2.50667 3.88971 2.18667 3.67638 1.952C3.47371 1.70667 3.16438 1.584 2.74838 1.584C2.37504 1.584 2.06038 1.68533 1.80438 1.888C1.55904 2.09067 1.43638 2.42667 1.43638 2.896C1.43638 3.35467 1.56438 3.70133 1.82038 3.936C2.07638 4.16 2.48704 4.272 3.05238 4.272ZM5.11638 7.12H6.87638V5.36H5.11638V7.12ZM2.74838 10.896C3.16438 10.896 3.47371 10.7787 3.67638 10.544C3.88971 10.2987 3.99638 9.97333 3.99638 9.568V8.208H3.05238C2.48704 8.208 2.07638 8.32533 1.82038 8.56C1.56438 8.784 1.43638 9.12533 1.43638 9.584C1.43638 10.0533 1.55904 10.3893 1.80438 10.592C2.06038 10.7947 2.37504 10.896 2.74838 10.896ZM7.99638 9.568C7.99638 9.97333 8.09771 10.2987 8.30037 10.544C8.51371 10.7787 8.82838 10.896 9.24438 10.896C9.61771 10.896 9.92704 10.7947 10.1724 10.592C10.4284 10.3893 10.5564 10.0533 10.5564 9.584C10.5564 9.12533 10.4284 8.784 10.1724 8.56C9.91638 8.32533 9.50571 8.208 8.94038 8.208H7.99638V9.568Z" fill="currentColor"/>
</svg>
