<svg width="24" height="24" viewBox="0 0 24 24" fill="none" xmlns="http://www.w3.org/2000/svg">
    <path d="M9.17072 7C9.58255 5.83481 10.6938 5 12 5H16C17.6569 5 19 6.34315 19 8V12C19 13.3062 18.1652 14.4175 17 14.8293L17 8C17 7.44772 16.5523 7 16 7H9.17072Z" fill="currentColor"/>
    <path fill-rule="evenodd" clip-rule="evenodd" d="M8 9C6.34315 9 5 10.3431 5 12V16C5 17.6569 6.34315 19 8 19H12C13.6569 19 15 17.6569 15 16V12C15 10.3431 13.6569 9 12 9H8ZM7 12C7 11.4477 7.44772 11 8 11H12C12.5523 11 13 11.4477 13 12V16C13 16.5523 12.5523 17 12 17H8C7.44772 17 7 16.5523 7 16V12Z" fill="currentColor"/>
</svg>
