<svg width="24" height="24" viewBox="0 0 24 24" fill="none" xmlns="http://www.w3.org/2000/svg">
    <path d="M13.4143 12L16.5001 8.91423C16.8906 8.5237 16.8906 7.89054 16.5001 7.50001C16.1096 7.10949 15.4764 7.10949 15.0859 7.50001L12.0001 10.5858L8.91429 7.50001C8.52376 7.10949 7.8906 7.10949 7.50008 7.50001C7.10955 7.89054 7.10955 8.5237 7.50007 8.91423L10.5859 12L7.50008 15.0858C7.10955 15.4763 7.10955 16.1095 7.50008 16.5C7.8906 16.8905 8.52376 16.8905 8.91429 16.5L12.0001 13.4142L15.0859 16.5C15.4764 16.8905 16.1096 16.8905 16.5001 16.5C16.8906 16.1095 16.8906 15.4763 16.5001 15.0858L13.4143 12Z" fill="currentColor"/>
</svg>
