<svg width="24" height="24" viewBox="0 0 24 24" fill="none" xmlns="http://www.w3.org/2000/svg">
<path d="M10.2969 20C8.47658 19.9998 7.09234 18.3649 7.39161 16.5693L7.82032 14H6.5254C4.59085 14 3.16141 12.1956 3.6045 10.3125L4.48243 6.58398C4.90757 4.77714 6.5198 3.50003 8.37598 3.5H18.5C19.8807 3.5 21 4.61929 21 6V11.5C21 12.8807 19.8807 14 18.5 14H15.7363C15.3576 14 15.0112 14.214 14.8418 14.5527L12.9326 18.3711C12.4336 19.3692 11.4128 20 10.2969 20ZM10.2969 18C10.6552 18 10.9833 17.7971 11.1436 17.4766L13.0527 13.6582C13.4483 12.8672 14.1658 12.305 15 12.0938V5.5H8.37598C7.44792 5.50003 6.64227 6.1386 6.42969 7.04199L5.55176 10.7705C5.40407 11.3982 5.88055 12 6.5254 12H8.41016C9.33688 12.0002 10.042 12.8329 9.88965 13.7471L9.36426 16.8984C9.26818 17.475 9.71246 17.9998 10.2969 18ZM19 6C19 5.72386 18.7761 5.5 18.5 5.5H17V12H18.5C18.7761 12 19 11.7761 19 11.5V6Z" fill="currentColor"/>
</svg>
