<svg width="24" height="24" viewBox="0 0 24 24" fill="none" xmlns="http://www.w3.org/2000/svg">
<path d="M9.5 10V12H11V15H9.5V17H14.5V15H13V10H9.5Z" fill="currentColor"/>
<path d="M13.25 8C13.25 8.69036 12.6904 9.25 12 9.25C11.3096 9.25 10.75 8.69036 10.75 8C10.75 7.30964 11.3096 6.75 12 6.75C12.6904 6.75 13.25 7.30964 13.25 8Z" fill="currentColor"/>
<path fill-rule="evenodd" clip-rule="evenodd" d="M12 3C7.02944 3 3 7.02944 3 12C3 16.9706 7.02944 21 12 21C16.9706 21 21 16.9706 21 12C21 7.02944 16.9706 3 12 3ZM5 12C5 8.13401 8.13401 5 12 5C15.866 5 19 8.13401 19 12C19 15.866 15.866 19 12 19C8.13401 19 5 15.866 5 12Z" fill="currentColor"/>
</svg>