<svg width="24" height="24" viewBox="0 0 24 24" fill="none" xmlns="http://www.w3.org/2000/svg">
<path d="M13.7031 3.5C15.5234 3.50023 16.9077 5.13507 16.6084 6.93066L16.1797 9.5H17.4746C19.4092 9.5 20.8386 11.3044 20.3955 13.1875L19.5176 16.916C19.0924 18.7229 17.4802 20 15.624 20H5.5C4.11929 20 3 18.8807 3 17.5V12C3 10.6193 4.11929 9.5 5.5 9.5H8.26367C8.64241 9.5 8.98879 9.28599 9.1582 8.94727L11.0674 5.12891C11.5664 4.13082 12.5872 3.5 13.7031 3.5ZM13.7031 5.5C13.3448 5.5 13.0167 5.70292 12.8564 6.02344L10.9473 9.8418C10.5517 10.6328 9.83417 11.195 9 11.4062V18H15.624C16.5521 18 17.3577 17.3614 17.5703 16.458L18.4482 12.7295C18.5959 12.1018 18.1195 11.5 17.4746 11.5H15.5898C14.6631 11.4998 13.958 10.6671 14.1104 9.75293L14.6357 6.60156C14.7318 6.02503 14.2875 5.50023 13.7031 5.5ZM5 17.5C5 17.7761 5.22386 18 5.5 18H7V11.5H5.5C5.22386 11.5 5 11.7239 5 12V17.5Z" fill="currentColor"/>
</svg>
