<svg width="24" height="24" viewBox="0 0 24 24" fill="none" xmlns="http://www.w3.org/2000/svg">
    <path d="M5.00006 12.0001C5.00006 13.3844 5.41067 14.7376 6.17974 15.8887C6.9489 17.0399 8.04229 17.937 9.32134 18.4669C10.6003 18.9966 12.0075 19.1353 13.3653 18.8653C14.7232 18.5952 15.9713 17.9292 16.9503 16.9503C17.9292 15.9713 18.5952 14.7232 18.8653 13.3653C19.1353 12.0075 18.9966 10.6003 18.4669 9.32134C17.937 8.04229 17.0399 6.9489 15.8887 6.17974C14.8095 5.45867 13.5526 5.05279 12.2588 5.00494L12.0001 5.00005L11.8975 4.99517C11.3934 4.94384 11.0001 4.51773 11.0001 4.00005C11.0001 3.48238 11.3934 3.05627 11.8975 3.00494L12.0001 3.00005L12.3331 3.00591C13.9964 3.06748 15.6125 3.58956 17.0001 4.51666C18.48 5.50553 19.6333 6.91132 20.3145 8.55572C20.9957 10.2003 21.1745 12.0101 20.8272 13.7559C20.4799 15.5017 19.623 17.1056 18.3643 18.3643C17.1056 19.623 15.5017 20.4799 13.7559 20.8272C12.0101 21.1745 10.2003 20.9957 8.55572 20.3145C6.91132 19.6333 5.50553 18.48 4.51666 17.0001C3.5278 15.52 3.00006 13.78 3.00006 12.0001C3.00006 11.4478 3.44777 11.0001 4.00006 11.0001C4.55234 11.0001 5.00006 11.4478 5.00006 12.0001Z" fill="currentColor" fill-opacity="0.62"/>
</svg>
