<svg width="24" height="24" viewBox="0 0 24 24" fill="none" xmlns="http://www.w3.org/2000/svg">
<path d="M7 7.5V10H5V7.5C5 6.11929 6.11929 5 7.5 5H10V7H7.5C7.22386 7 7 7.22386 7 7.5Z" fill="currentColor"/>
<path d="M7 16.5V14H5V16.5C5 17.8807 6.11929 19 7.5 19H10V17H7.5C7.22386 17 7 16.7761 7 16.5Z" fill="currentColor"/>
<path d="M17 14V16.5C17 16.7761 16.7761 17 16.5 17H14V19H16.5C17.8807 19 19 17.8807 19 16.5V14H17Z" fill="currentColor"/>
<path d="M17 7.5V10H19V7.5C19 6.11929 17.8807 5 16.5 5H14V7H16.5C16.7761 7 17 7.22386 17 7.5Z" fill="currentColor"/>
</svg>
