<svg width="24" height="24" viewBox="0 0 24 24" fill="none" xmlns="http://www.w3.org/2000/svg">
<path d="M8 5V7.5C8 7.77614 7.77614 8 7.5 8H5V10H7.5C8.88071 10 10 8.88071 10 7.5V5H8Z" fill="currentColor"/>
<path d="M16 7.5V5H14V7.5C14 8.88071 15.1193 10 16.5 10H19V8H16.5C16.2239 8 16 7.77614 16 7.5Z" fill="currentColor"/>
<path d="M16 16.5V19H14V16.5C14 15.1193 15.1193 14 16.5 14H19V16H16.5C16.2239 16 16 16.2239 16 16.5Z" fill="currentColor"/>
<path d="M8 16.5V19H10V16.5C10 15.1193 8.88071 14 7.5 14H5V16H7.5C7.77614 16 8 16.2239 8 16.5Z" fill="currentColor"/>
</svg>
