<svg width="24" height="24" viewBox="0 0 24 24" fill="none" xmlns="http://www.w3.org/2000/svg">
<path fill-rule="evenodd" clip-rule="evenodd" d="M5.42288 4.09381C5.05731 3.92321 4.62503 3.98897 4.32674 4.26057C4.02845 4.53217 3.92257 4.95641 4.05825 5.33632L6.43813 12L4.05825 18.6637C3.92257 19.0436 4.02845 19.4678 4.32674 19.7394C4.62503 20.011 5.05731 20.0768 5.42288 19.9062L20.4229 12.9062C20.775 12.7419 21 12.3885 21 12C21 11.6115 20.775 11.2581 20.4229 11.0938L5.42288 4.09381ZM8.20471 11L6.74717 6.91887L17.6353 12L6.74717 17.0811L8.20471 13H11C11.5523 13 12 12.5523 12 12C12 11.4477 11.5523 11 11 11H8.20471Z" fill="currentColor"/>
</svg>
