<svg width="24" height="24" viewBox="0 0 24 24" fill="none" xmlns="http://www.w3.org/2000/svg">
<path d="M14.3091 2C15.1372 2 15.7675 2.74378 15.6314 3.56055L14.8912 8H17.0816C18.1464 8 18.7863 9.18202 18.2037 10.0732L10.8091 21.3828C10.0416 22.5567 8.21482 21.912 8.35406 20.5166L9.10601 13H7.09038C6.29173 13 5.67016 12.3055 5.75835 11.5117L6.68316 3.19238L6.70269 3.06641C6.83047 2.45101 7.37519 2 8.01519 2H14.3091ZM7.82769 11H9.83452C10.6273 11 11.2474 11.6848 11.1685 12.4736L10.6128 18.0273L15.8619 10H14.1119C13.2838 10 12.6535 9.25623 12.7896 8.43945L13.5298 4H8.60503L7.82769 11Z" fill="currentColor"/>
</svg>
