<svg width="24" height="24" viewBox="0 0 24 24" fill="none" xmlns="http://www.w3.org/2000/svg">
<path d="M13.4142 12.0001L16.5 8.91429C16.8905 8.52376 16.8905 7.8906 16.5 7.50008C16.1095 7.10955 15.4763 7.10955 15.0858 7.50007L12 10.5859L8.91421 7.50008C8.52369 7.10955 7.89052 7.10955 7.5 7.50008C7.10947 7.8906 7.10947 8.52376 7.5 8.91429L10.5858 12.0001L7.5 15.0859C7.10947 15.4764 7.10947 16.1096 7.5 16.5001C7.89052 16.8906 8.52369 16.8906 8.91421 16.5001L12 13.4143L15.0858 16.5001C15.4763 16.8906 16.1095 16.8906 16.5 16.5001C16.8905 16.1096 16.8905 15.4764 16.5 15.0859L13.4142 12.0001Z" fill="currentColor"/>
</svg>
