<svg width="16" height="16" viewBox="0 0 22 22" fill="none" xmlns="http://www.w3.org/2000/svg">
    <path fill="currentColor" fill-rule="evenodd" d="M9 10a3 3 0 1 1 6 0v1a3 3 0 1 1-6 0v-1Zm3-1a1 1 0 0 0-1 1v1a1 1 0 1 0 2 0v-1a1 1 0 0 0-1-1Z" clip-rule="evenodd"></path><path fill="currentColor" fill-rule="evenodd" d="M3 12a9 9 0 1 1 18 0 9 9 0 0 1-18 0Zm9-7a7 7 0 0 0-4.808 12.088A4.59 4.59 0 0 1 11.042 15h1.917a4.59 4.59 0 0 1 3.849 2.088A7 7 0 0 0 12 5Zm3.17 13.242A2.59 2.59 0 0 0 12.96 17H11.04a2.59 2.59 0 0 0-2.212 1.242A6.97 6.97 0 0 0 12 19a6.97 6.97 0 0 0 3.17-.758Z" clip-rule="evenodd"></path>
</svg>