<svg width="24" height="24" viewBox="0 0 24 24" fill="none" xmlns="http://www.w3.org/2000/svg">
<path d="M13 15V17H11V15H13ZM11 9.99999C11 9.83399 11.0412 9.67059 11.1201 9.52453C11.199 9.37847 11.313 9.25435 11.4518 9.16335C11.5906 9.07235 11.7499 9.01735 11.9154 9.00329C12.0808 8.98924 12.2471 9.01659 12.3992 9.08286C12.5514 9.14914 12.6847 9.25225 12.7871 9.38291C12.8895 9.51358 12.9578 9.66767 12.9857 9.8313C13.0137 9.99492 13.0005 10.1629 12.9473 10.3202C12.8941 10.4774 12.8026 10.6189 12.681 10.732L12.571 10.834C12.305 11.079 11.953 11.404 11.671 11.762C11.337 12.183 11 12.767 11 13.5V14H13V13.5C13 13.405 13.041 13.253 13.239 13.003C13.418 12.777 13.643 12.568 13.919 12.312L14.045 12.195C14.4093 11.8556 14.6833 11.431 14.8425 10.9592C15.0017 10.4875 15.041 9.98364 14.9568 9.49296C14.8727 9.00228 14.6678 8.54026 14.3605 8.14854C14.0533 7.75681 13.6534 7.44771 13.1969 7.24909C12.7404 7.05048 12.2416 6.96859 11.7456 7.01081C11.2495 7.05303 10.7718 7.21804 10.3554 7.49095C9.93904 7.76387 9.59714 8.13611 9.36052 8.57412C9.1239 9.01214 9 9.50215 9 9.99999V10.5H11V9.99999Z" fill="currentColor"/>
<path fill-rule="evenodd" clip-rule="evenodd" d="M3 12C3 10.8181 3.23279 9.64778 3.68508 8.55585C4.13738 7.46392 4.80031 6.47177 5.63604 5.63604C6.47177 4.80031 7.46392 4.13738 8.55585 3.68508C9.64778 3.23279 10.8181 3 12 3C13.1819 3 14.3522 3.23279 15.4442 3.68508C16.5361 4.13738 17.5282 4.80031 18.364 5.63604C19.1997 6.47177 19.8626 7.46392 20.3149 8.55585C20.7672 9.64778 21 10.8181 21 12C21 14.3869 20.0518 16.6761 18.364 18.364C16.6761 20.0518 14.3869 21 12 21C9.61305 21 7.32387 20.0518 5.63604 18.364C3.94821 16.6761 3 14.3869 3 12ZM12 5C11.0807 5 10.1705 5.18106 9.32122 5.53284C8.47194 5.88463 7.70026 6.40024 7.05025 7.05025C6.40024 7.70026 5.88463 8.47194 5.53284 9.32122C5.18106 10.1705 5 11.0807 5 12C5 12.9193 5.18106 13.8295 5.53284 14.6788C5.88463 15.5281 6.40024 16.2997 7.05025 16.9497C7.70026 17.5998 8.47194 18.1154 9.32122 18.4672C10.1705 18.8189 11.0807 19 12 19C13.8565 19 15.637 18.2625 16.9497 16.9497C18.2625 15.637 19 13.8565 19 12C19 10.1435 18.2625 8.36301 16.9497 7.05025C15.637 5.7375 13.8565 5 12 5Z" fill="currentColor"/>
</svg>
