<svg width="48" height="48" viewBox="0 0 48 48" fill="none" xmlns="http://www.w3.org/2000/svg">
<path d="M1.59084e-08 17.0526L2.88708e-08 30.9474C3.21348e-08 34.4461 1.95406 37.66 5.08235 39.3065L19.4824 46.8854C22.3059 48.3715 25.6941 48.3715 28.5176 46.8854L42.9176 39.3065C46.0459 37.66 48 34.4461 48 30.9474L48 17.0526C48 13.5539 46.0459 10.34 42.9176 8.6935L28.5176 1.11455C25.6941 -0.371517 22.3059 -0.371517 19.4824 1.11455L5.08235 8.6935C1.95406 10.34 1.26444e-08 13.5539 1.59084e-08 17.0526Z" fill="currentColor"/>
<g clip-path="url(#clip0_4459_11227)">
<path d="M21.75 15C22.1642 15 22.5 15.3358 22.5 15.75L22.5 17.7451C22.5 18.0807 22.7243 18.3717 23.04 18.4854C23.2879 18.5745 23.5304 18.6756 23.7666 18.7871C24.07 18.9303 24.4346 18.8827 24.6719 18.6455L26.084 17.2344C26.3769 16.9416 26.8517 16.9415 27.1445 17.2344L29.2656 19.3555C29.5583 19.6484 29.5584 20.1232 29.2656 20.416L27.8535 21.8271C27.6161 22.0645 27.5686 22.4298 27.7119 22.7334C27.8234 22.9697 27.9246 23.212 28.0137 23.46C28.1272 23.7757 28.4184 24 28.7539 24L30.75 24C31.1642 24 31.5 24.3358 31.5 24.75L31.5 27.75C31.5 28.1642 31.1642 28.5 30.75 28.5L28.7539 28.5C28.4184 28.5 28.1273 28.7243 28.0137 29.04C27.9246 29.2878 27.8234 29.5305 27.7119 29.7666C27.5688 30.0701 27.6163 30.4346 27.8535 30.6719L29.2656 32.084C29.5584 32.3769 29.5584 32.8517 29.2656 33.1445L27.1445 35.2656C26.8517 35.5584 26.3769 35.5584 26.084 35.2656L24.6719 33.8535C24.4346 33.6163 24.0701 33.5688 23.7666 33.7119C23.5305 33.8234 23.2878 33.9246 23.04 34.0137C22.7243 34.1273 22.5 34.4184 22.5 34.7539L22.5 36.75C22.5 37.1642 22.1642 37.5 21.75 37.5L18.75 37.5C18.3358 37.5 18 37.1642 18 36.75L18 34.7539C18 34.4184 17.7757 34.1272 17.46 34.0137C17.212 33.9246 16.9697 33.8234 16.7334 33.7119C16.4298 33.5686 16.0645 33.6161 15.8271 33.8535L14.416 35.2656C14.1232 35.5584 13.6484 35.5583 13.3555 35.2656L11.2344 33.1445C10.9415 32.8517 10.9416 32.3769 11.2344 32.084L12.6455 30.6719C12.8827 30.4346 12.9301 30.0701 12.7871 29.7666C12.6758 29.5305 12.5753 29.2878 12.4863 29.04C12.3729 28.7243 12.0816 28.5 11.7461 28.5L9.75 28.5C9.33579 28.5 9 28.1642 9 27.75L9 24.75C9 24.3358 9.33579 24 9.75 24L11.7461 24C12.0816 24 12.373 23.7758 12.4863 23.46C12.5752 23.2121 12.6758 22.9696 12.7871 22.7334C12.9302 22.4297 12.8829 22.0645 12.6455 21.8271L11.2344 20.416C10.9416 20.1231 10.9416 19.6483 11.2344 19.3555L13.3555 17.2344C13.6483 16.9416 14.1231 16.9416 14.416 17.2344L15.8271 18.6455C16.0645 18.8829 16.4298 18.9304 16.7334 18.7871C16.9697 18.6756 17.212 18.5744 17.46 18.4854C17.7757 18.3718 18 18.0807 18 17.7451L18 15.75C18 15.3358 18.3358 15 18.75 15L21.75 15ZM20.25 21C17.3505 21 15 23.3505 15 26.25C15 29.1495 17.3505 31.5 20.25 31.5C23.1495 31.5 25.5 29.1495 25.5 26.25C25.5 23.3505 23.1495 21 20.25 21Z" fill="white"/>
<path d="M36.75 15C37.1642 15 37.5 15.3358 37.5 15.75L37.5 30.75C37.5 31.1642 37.1642 31.5 36.75 31.5L32.25 31.5C31.8358 31.5 31.5 31.1642 31.5 30.75L31.5 29.8682C32.3733 29.5589 33 28.7292 33 27.75L33 24.75C33 23.7707 32.3734 22.94 31.5 22.6309L31.5 15.75C31.5 15.3358 31.8358 15 32.25 15L36.75 15ZM30 30.6963L29.3037 30L30 30L30 30.6963ZM30 22.5L29.3037 22.5L30 21.8027L30 22.5ZM29.25 12C29.6642 12 30 12.3358 30 12.75L30 17.9688L28.2051 16.1738C27.3265 15.2952 25.9021 15.2953 25.0234 16.1738L24 17.1963L24 12.75C24 12.3358 24.3358 12 24.75 12L29.25 12Z" fill="white"/>
<circle cx="20.25" cy="26.25" r="3.75" fill="white"/>
</g>
<defs>
<clipPath id="clip0_4459_11227">
<rect width="30" height="30" fill="white" transform="translate(9 9)"/>
</clipPath>
</defs>
</svg>
