<svg width="48" height="48" viewBox="0 0 48 48" fill="none" xmlns="http://www.w3.org/2000/svg">
<path d="M0 17.0526V30.9474C0 34.4461 1.95406 37.66 5.08235 39.3065L19.4824 46.8854C22.3059 48.3715 25.6941 48.3715 28.5177 46.8854L42.9176 39.3065C46.0459 37.66 48 34.4461 48 30.9474V17.0526C48 13.5539 46.0459 10.34 42.9176 8.6935L28.5177 1.11455C25.6941 -0.371517 22.3059 -0.371517 19.4824 1.11455L5.08235 8.6935C1.95406 10.34 0 13.5539 0 17.0526Z" fill="currentColor"/>
<path d="M15 24.75C15.8284 24.75 16.5 25.4216 16.5 26.25V30.75C16.5 31.1642 16.8358 31.5 17.25 31.5H21.75C22.5784 31.5 23.25 32.1716 23.25 33C23.25 33.8284 22.5784 34.5 21.75 34.5H17.25C15.1789 34.5 13.5 32.8211 13.5 30.75V26.25C13.5 25.4216 14.1716 24.75 15 24.75Z" fill="white"/>
<path d="M33 24.75C33.8284 24.75 34.5 25.4216 34.5 26.25V30.75C34.5 32.8211 32.8211 34.5 30.75 34.5H26.25C25.4216 34.5 24.75 33.8284 24.75 33C24.75 32.1716 25.4216 31.5 26.25 31.5H30.75C31.1642 31.5 31.5 31.1642 31.5 30.75V26.25C31.5 25.4216 32.1716 24.75 33 24.75Z" fill="white"/>
<path d="M28.5 18C29.3284 18 30 18.6716 30 19.5V28.5C30 29.3284 29.3284 30 28.5 30H19.5C18.6716 30 18 29.3284 18 28.5V19.5C18 18.6716 18.6716 18 19.5 18H28.5Z" fill="white"/>
<path d="M21.75 13.5C22.5784 13.5 23.25 14.1716 23.25 15C23.25 15.8284 22.5784 16.5 21.75 16.5H17.25C16.8358 16.5 16.5 16.8358 16.5 17.25V21.75C16.5 22.5784 15.8284 23.25 15 23.25C14.1716 23.25 13.5 22.5784 13.5 21.75V17.25C13.5 15.1789 15.1789 13.5 17.25 13.5H21.75Z" fill="white"/>
<path d="M30.75 13.5C32.8211 13.5 34.5 15.1789 34.5 17.25V21.75C34.5 22.5784 33.8284 23.25 33 23.25C32.1716 23.25 31.5 22.5784 31.5 21.75V17.25C31.5 16.8358 31.1642 16.5 30.75 16.5H26.25C25.4216 16.5 24.75 15.8284 24.75 15C24.75 14.1716 25.4216 13.5 26.25 13.5H30.75Z" fill="white"/>
</svg>
