<svg width="48" height="48" viewBox="0 0 48 48" fill="none" xmlns="http://www.w3.org/2000/svg">
<path d="M0 17.0526V30.9474C0 34.4461 1.95406 37.66 5.08235 39.3065L19.4824 46.8854C22.3059 48.3715 25.6941 48.3715 28.5176 46.8854L42.9176 39.3065C46.0459 37.66 48 34.4461 48 30.9474V17.0526C48 13.5539 46.0459 10.34 42.9176 8.6935L28.5176 1.11455C25.6941 -0.371517 22.3059 -0.371517 19.4824 1.11455L5.08235 8.6935C1.95406 10.34 0 13.5539 0 17.0526Z" fill="currentColor"/>
<path d="M27.75 12C32.6618 12 36 15.7503 36 19.7991C36 21.4249 35.6407 22.8368 34.8084 24.614C29.9239 24.614 29.0325 27.8298 28.8233 29.9945L28.6732 31.5H26.8268L26.6767 29.9945C26.4675 27.8387 25.5761 24.614 20.6916 24.614C19.8593 22.8457 19.5 21.4249 19.5 19.7991C19.5 15.7548 22.8382 12 27.75 12H27.7545H27.75Z" fill="white"/>
<path fill-rule="evenodd" clip-rule="evenodd" d="M18.1791 18.0215C14.4748 18.306 12 21.3415 12 24.599C12 25.9746 12.294 27.1769 12.9749 28.6731C16.9713 28.6731 17.7007 31.4018 17.8718 33.2259L17.9946 34.4997H19.5054L19.6282 33.2259C19.7993 31.3942 20.5287 28.6731 24.5251 28.6731C24.5969 28.5145 24.6645 28.3592 24.7278 28.2069C24.6049 27.9279 24.4531 27.6667 24.2655 27.432C23.7419 26.7767 22.7669 26.1137 20.6916 26.1137H19.7397L19.3344 25.2525C18.4299 23.3309 18 21.6916 18 19.7989C18 19.197 18.0611 18.602 18.1791 18.0215Z" fill="white"/>
</svg>
