<svg width="48" height="48" viewBox="0 0 48 48" fill="none" xmlns="http://www.w3.org/2000/svg">
<path d="M1.59084e-08 17.0526L2.88708e-08 30.9474C3.21348e-08 34.4461 1.95406 37.66 5.08235 39.3065L19.4824 46.8854C22.3059 48.3715 25.6941 48.3715 28.5176 46.8854L42.9176 39.3065C46.0459 37.66 48 34.4461 48 30.9474L48 17.0526C48 13.5539 46.0459 10.34 42.9176 8.6935L28.5176 1.11455C25.6941 -0.371517 22.3059 -0.371517 19.4824 1.11455L5.08235 8.6935C1.95406 10.34 1.26444e-08 13.5539 1.59084e-08 17.0526Z" fill="currentColor"/>
<path fill-rule="evenodd" clip-rule="evenodd" d="M14.8256 29.0342L14.188 29.3533C12.8332 30.0314 12.8332 31.1307 14.188 31.8087L21.5471 35.4918C22.9019 36.1699 25.0984 36.1699 26.4532 35.4918L33.8123 31.8087C35.1671 31.1307 35.1671 30.0314 33.8123 29.3533L33.1747 29.0342L27.3564 32.1403C26.3504 32.6773 25.133 32.9036 24.0002 32.9036C22.8673 32.9036 21.6499 32.6773 20.6439 32.1403L14.8256 29.0342Z" fill="white"/>
<path fill-rule="evenodd" clip-rule="evenodd" d="M14.436 23.252L13.4871 23.7586C12.0355 24.5335 12.0355 25.7899 13.4871 26.5648L21.3719 30.774C22.8234 31.549 25.1769 31.549 26.6284 30.774L34.5132 26.5648C35.9648 25.7899 35.9648 24.5335 34.5132 23.7586L33.5642 23.252L27.5618 26.6316C26.5004 27.2292 25.2081 27.4843 24 27.4843C22.7919 27.4843 21.4996 27.2292 20.4382 26.6316L14.436 23.252Z" fill="white"/>
<path d="M21.1966 12.6538C22.7449 11.7821 25.2551 11.7821 26.8034 12.6538L35.2138 17.3893C36.7621 18.261 36.7621 19.6744 35.2138 20.5462L26.8034 25.2816C25.2551 26.1534 22.7449 26.1534 21.1966 25.2816L12.7862 20.5462C11.2379 19.6744 11.2379 18.261 12.7862 17.3893L21.1966 12.6538Z" fill="white"/>
</svg>
