<svg width="48" height="48" viewBox="0 0 48 48" fill="none" xmlns="http://www.w3.org/2000/svg">
<path d="M0 17.0526V30.9474C0 34.4461 1.95406 37.66 5.08235 39.3065L19.4824 46.8854C22.3059 48.3715 25.6941 48.3715 28.5176 46.8854L42.9176 39.3065C46.0459 37.66 48 34.4461 48 30.9474V17.0526C48 13.5539 46.0459 10.34 42.9176 8.6935L28.5176 1.11455C25.6941 -0.371517 22.3059 -0.371517 19.4824 1.11455L5.08235 8.6935C1.95406 10.34 0 13.5539 0 17.0526Z" fill="currentColor"/>
<path d="M18.7388 12.2007C19.1987 11.9331 19.7652 11.9331 20.2251 12.2007L24.7461 14.8309C25.206 15.0985 25.4893 15.593 25.4893 16.1281V21.3884C25.4893 21.9236 25.206 22.4181 24.7461 22.6856L20.2251 25.3159C19.7652 25.5834 19.1987 25.5834 18.7388 25.3159L14.2178 22.6856C13.7579 22.4181 13.4746 21.9236 13.4746 21.3884V16.1281C13.4746 15.593 13.7579 15.0985 14.2178 14.8309L18.7388 12.2007Z" fill="white"/>
<path d="M30.2804 15.8765C30.5678 15.713 30.9219 15.713 31.2093 15.8765L34.0349 17.4839C34.3224 17.6474 34.4994 17.9496 34.4994 18.2766V21.4913C34.4994 21.8183 34.3224 22.1205 34.0349 22.284L31.2093 23.8914C30.9219 24.0549 30.5678 24.0549 30.2804 23.8914L27.4547 22.284C27.1673 22.1205 26.9902 21.8183 26.9902 21.4913V18.2766C26.9902 17.9496 27.1673 17.6474 27.4547 17.4839L30.2804 15.8765Z" fill="white"/>
<path d="M25.4966 24.2163C25.9565 23.9487 26.5231 23.9487 26.9829 24.2163L31.5039 26.8465C31.9638 27.1141 32.2471 27.6086 32.2471 28.1437V33.4041C32.2471 33.9392 31.9638 34.4337 31.5039 34.7013L26.9829 37.3315C26.5231 37.599 25.9565 37.5991 25.4966 37.3315L20.9756 34.7013C20.5157 34.4337 20.2324 33.9392 20.2324 33.4041V28.1437C20.2324 27.6086 20.5157 27.1141 20.9756 26.8465L25.4966 24.2163Z" fill="white"/>
</svg>
