<svg xmlns="http://www.w3.org/2000/svg" width="48" height="48" viewBox="0 0 48 48" fill="none">
  <path fill-rule="evenodd" clip-rule="evenodd" d="M31.4981 12.572C31.4034 8.09784 27.7469 4.5 23.25 4.5C19.4443 4.5 16.2405 7.07683 15.2881 10.5809C10.8907 11.1728 7.5 14.9404 7.5 19.5C7.5 22.1664 8.66084 24.562 10.5 26.2082V39C10.5 41.4853 12.5147 43.5 15 43.5H22.5V26.2082C24.3392 24.562 25.5 22.1664 25.5 19.5C25.5 18.825 25.4257 18.1673 25.2848 17.5347L30 15.1771L37.5 18.9271V34.5C37.5 35.3284 36.8284 36 36 36H25.5V39H36C38.4853 39 40.5 36.9853 40.5 34.5V17.0729L31.4981 12.572ZM23.25 7.5C21.0764 7.5 19.2113 8.82095 18.4137 10.7039C20.8275 11.2266 22.8806 12.7176 24.1459 14.75L28.4971 12.5744C28.4045 9.75619 26.0907 7.5 23.25 7.5ZM15 16.5V13.689C12.4122 14.3551 10.5 16.7042 10.5 19.5C10.5 21.462 11.4401 23.204 12.9009 24.3012L13.5 24.7512V28.5H16.5V31.5H13.5V34.5H16.5V37.5H13.5V39C13.5 39.8284 14.1716 40.5 15 40.5H19.5V24.7512L20.0991 24.3012C21.5599 23.204 22.5 21.462 22.5 19.5C22.5 16.7042 20.5878 14.3551 18 13.689V16.5C18 17.3284 17.3284 18 16.5 18C15.6716 18 15 17.3284 15 16.5Z" fill="currentColor"/>
</svg>
