<svg xmlns="http://www.w3.org/2000/svg" width="48" height="48" viewBox="0 0 48 48" fill="none">
  <path d="M37.5 12C37.5 11.1716 36.8284 10.5 36 10.5H12C11.1716 10.5 10.5 11.1716 10.5 12V18C10.5 18.8284 11.1716 19.5 12 19.5H36C36.8284 19.5 37.5 18.8284 37.5 18V12ZM40.5 18C40.5 20.4853 38.4853 22.5 36 22.5H12C9.51472 22.5 7.5 20.4853 7.5 18V12C7.5 9.51472 9.51472 7.5 12 7.5H36C38.4853 7.5 40.5 9.51472 40.5 12V18Z" fill="currentColor"/>
  <path d="M37.5 30C37.5 29.1716 36.8284 28.5 36 28.5H12C11.1716 28.5 10.5 29.1716 10.5 30V36C10.5 36.8284 11.1716 37.5 12 37.5H36C36.8284 37.5 37.5 36.8284 37.5 36V30ZM40.5 36C40.5 38.4853 38.4853 40.5 36 40.5H12C9.51472 40.5 7.5 38.4853 7.5 36V30C7.5 27.5147 9.51472 25.5 12 25.5H36C38.4853 25.5 40.5 27.5147 40.5 30V36Z" fill="currentColor"/>
  <path d="M16.5 15C16.5 15.8284 15.8284 16.5 15 16.5C14.1716 16.5 13.5 15.8284 13.5 15C13.5 14.1716 14.1716 13.5 15 13.5C15.8284 13.5 16.5 14.1716 16.5 15Z" fill="currentColor"/>
  <path d="M16.5 33C16.5 33.8284 15.8284 34.5 15 34.5C14.1716 34.5 13.5 33.8284 13.5 33C13.5 32.1716 14.1716 31.5 15 31.5C15.8284 31.5 16.5 32.1716 16.5 33Z" fill="currentColor"/>
  <path d="M13.5 25.5V22.5C13.5 21.6716 14.1716 21 15 21C15.8284 21 16.5 21.6716 16.5 22.5V25.5C16.5 26.3284 15.8284 27 15 27C14.1716 27 13.5 26.3284 13.5 25.5Z" fill="currentColor"/>
  <path d="M31.5 25.5V22.5C31.5 21.6716 32.1716 21 33 21C33.8284 21 34.5 21.6716 34.5 22.5V25.5C34.5 26.3284 33.8284 27 33 27C32.1716 27 31.5 26.3284 31.5 25.5Z" fill="currentColor"/>
</svg>
