<svg xmlns="http://www.w3.org/2000/svg" width="18" fill="none" viewBox="0 0 18 18">
   <path fill="currentColor" d="M15.192 9.817A7 7 0 0 0 15.25 9a7 7 0 0 0-.058-.817l1.758-1.375a.42.42 0 0 0 .1-.533l-1.667-2.883a.416.416 0 0 0-.508-.184l-2.075.833a6 6 0 0 0-1.408-.816l-.317-2.208a.406.406 0 0 0-.408-.35H7.333a.406.406 0 0 0-.408.35l-.317 2.208a6.4 6.4 0 0 0-1.408.817l-2.075-.834a.5.5 0 0 0-.15-.025.41.41 0 0 0-.358.209L.95 6.275a.41.41 0 0 0 .1.533l1.758 1.375A7 7 0 0 0 2.75 9c0 .275.025.55.058.816L1.05 11.192a.42.42 0 0 0-.1.534l1.667 2.883a.416.416 0 0 0 .508.183l2.075-.833c.433.333.9.608 1.408.817l.317 2.208c.025.2.2.35.408.35h3.334c.208 0 .383-.15.408-.35l.317-2.208a6.4 6.4 0 0 0 1.408-.817l2.075.833q.075.025.15.025a.41.41 0 0 0 .358-.208l1.667-2.883a.42.42 0 0 0-.1-.534zm-1.65-1.425c.033.258.041.433.041.608a6 6 0 0 1-.041.608l-.117.942.742.583.9.7-.584 1.008-1.058-.425-.867-.35-.75.567c-.358.267-.7.467-1.041.609l-.884.358-.133.941-.167 1.125H8.417l-.159-1.125-.133-.941-.883-.358a4.7 4.7 0 0 1-1.025-.592l-.759-.584-.883.359-1.058.425-.584-1.008.9-.7.742-.584-.117-.941A7 7 0 0 1 4.417 9c0-.167.016-.358.041-.608l.117-.942-.742-.583-.9-.7.584-1.009 1.058.425.867.35.75-.566c.358-.267.7-.467 1.041-.609l.884-.358.133-.942.167-1.125h1.158l.158 1.125.134.942.883.358c.358.15.692.342 1.025.592l.758.583.884-.358 1.058-.425.583 1.008-.891.708-.742.584zM9 5.667a3.332 3.332 0 1 0 0 6.666A3.33 3.33 0 0 0 12.333 9 3.33 3.33 0 0 0 9 5.667m0 5c-.917 0-1.667-.75-1.667-1.667S8.083 7.333 9 7.333s1.667.75 1.667 1.667c0 .916-.75 1.666-1.667 1.666"></path>
</svg>