<svg width="60" height="32" viewBox="0 0 60 32" fill="none" xmlns="http://www.w3.org/2000/svg">
<path fill-rule="evenodd" clip-rule="evenodd" d="M12.0741 11.7143V19.9388C12.0741 22.0903 11.3565 23.0707 9.56248 23.0707C8.07207 23.0707 7.35446 22.1175 7.35446 19.9388V11.7143H2V20.9193C2 25.2222 4.98083 28 9.56248 28C14.4477 28 17.4286 25.2222 17.4286 20.9193V11.7143H12.0741ZM38.9848 23.0565V6.57143H33.7143V27.9165L42.5166 27.9993C47.5427 28.0545 50.8571 24.8238 50.8571 19.9086C50.8571 14.883 47.923 11.7627 42.3808 11.7627H40.5062L40.5334 16.4294H41.8374C44.2282 16.4294 45.5051 17.6996 45.5051 19.7706C45.5051 21.8968 44.364 23.1394 42.6796 23.1118L38.9848 23.0565ZM28.6965 11.7143C27.0024 11.7143 25.3929 12.1304 24.8847 13.7396L23.6706 11.742H20L20.0282 28H25.5059V19.1497C25.5059 17.4018 26.6071 16.4862 28.3859 16.4862H32V11.7143H28.6965ZM57.7143 28V11.7143H52.5714V28H57.7143ZM55.1429 10C57.0444 10 58.5714 8.65138 58.5714 7C58.5714 5.34862 57.0444 4 55.1429 4C53.2413 4 51.7143 5.34862 51.7143 7C51.7143 8.65138 53.2413 10 55.1429 10Z" fill="#262626"/>
</svg>
