<svg width="16" height="16" viewBox="0 0 26 26" fill="none" xmlns="http://www.w3.org/2000/svg">
      <path opacity="0.2" fill-rule="evenodd" clip-rule="evenodd" d="M14 27C21.1797 27 27 21.1797 27 14C27 6.8203 21.1797 1 14 1C6.8203 1 1 6.8203 1 14C1 21.1797 6.8203 27 14 27ZM14 22C18.4183 22 22 18.4183 22 14C22 9.58172 18.4183 6 14 6C9.58172 6 6 9.58172 6 14C6 18.4183 9.58172 22 14 22Z" fill="currentColor"></path>
      <path fill-rule="evenodd" clip-rule="evenodd" d="M14 24C19.5228 24 24 19.5228 24 14C24 8.47715 19.5228 4 14 4C8.47715 4 4 8.47715 4 14C4 19.5228 8.47715 24 14 24ZM14 22C18.4183 22 22 18.4183 22 14C22 9.58172 18.4183 6 14 6C9.58172 6 6 9.58172 6 14C6 18.4183 9.58172 22 14 22Z" fill="currentColor"></path>
      <circle cx="14" cy="14" r="8"></circle>
      <path fill-rule="evenodd" clip-rule="evenodd" d="M15 10H13V13H10V15H13V18H15V15H18V13H15V10Z" fill="currentColor"></path>
</svg>