<svg width="18" height="18" viewBox="4 2 20 20" fill="none" xmlns="http://www.w3.org/2000/svg">
    <path fill-rule="evenodd" clip-rule="evenodd" d="M4 7.5C4 6.11929 5.11929 5 6.5 5H13.5C14.8807 5 16 6.11929 16 7.5V9H17.5C18.8807 9 20 10.1193 20 11.5V12.0854C19.8436 12.0301 19.6753 12 19.5 12H18V11.5C18 11.2239 17.7761 11 17.5 11H16V12.5C16 13.8807 14.8807 15 13.5 15H10V16.5C10 16.7761 10.2239 17 10.5 17H13V18.5C13 18.6753 13.0301 18.8436 13.0854 19H10.5C9.11929 19 8 17.8807 8 16.5V15H6.5C5.11929 15 4 13.8807 4 12.5V7.5ZM6.5 7C6.22386 7 6 7.22386 6 7.5V12.5C6 12.7761 6.22386 13 6.5 13H13.5C13.7761 13 14 12.7761 14 12.5V7.5C14 7.22386 13.7761 7 13.5 7H6.5ZM18.5 14C18.2239 14 18 14.2239 18 14.5V17H15.5C15.2239 17 15 17.2239 15 17.5V18.5C15 18.7761 15.2239 19 15.5 19H18V21.5C18 21.7761 18.2239 22 18.5 22H19.5C19.7761 22 20 21.7761 20 21.5V19H22.5C22.7761 19 23 18.7761 23 18.5V17.5C23 17.2239 22.7761 17 22.5 17H20V14.5C20 14.2239 19.7761 14 19.5 14H18.5Z" fill="currentColor"></path>
</svg>