<svg width="18" height="18" viewBox="0 0 24 24" fill="none" xmlns="http://www.w3.org/2000/svg">
    <path fill-rule="evenodd" clip-rule="evenodd" d="M19 4a1 1 0 1 0 0 2 1 1 0 0 0 0-2Zm-3 1a3 3 0 1 1 6 0 3 3 0 0 1-6 0Zm-4 5.693-1.032 2.579a1.25 1.25 0 0 1-.696.696L7.692 15l2.58 1.032c.317.127.57.378.696.696L12 19.308l1.032-2.58a1.25 1.25 0 0 1 .696-.696L16.308 15l-2.58-1.032a1.25 1.25 0 0 1-.696-.696L12 10.692Zm-1.16-2.484c.418-1.048 1.902-1.048 2.32 0l1.61 4.022 4.021 1.608c1.048.42 1.048 1.902 0 2.322l-4.022 1.608-1.608 4.022c-.42 1.048-1.902 1.048-2.322 0L9.231 17.77l-4.022-1.608c-1.048-.42-1.048-1.903 0-2.322l4.022-1.608 1.608-4.022ZM6 5a1 1 0 0 0-2 0v1H3a1 1 0 0 0 0 2h1v1a1 1 0 0 0 2 0V8h1a1 1 0 0 0 0-2H6V5Z" fill="currentColor"></path>
</svg>