<svg width="16" height="16" viewBox="4 0 20 20" fill="none" xmlns="http://www.w3.org/2000/svg">
    <path d="M9.17072 7C9.58255 5.83481 10.6938 5 12 5h4c1.6569 0 3 1.34315 3 3v4c0 1.3062-.8348 2.4175-2 2.8293V8c0-.55228-.4477-1-1-1H9.17072Z" fill="currentColor"></path><path fill-rule="evenodd" clip-rule="evenodd" d="M8 9c-1.65685 0-3 1.3431-3 3v4c0 1.6569 1.34315 3 3 3h4c1.6569 0 3-1.3431 3-3v-4c0-1.6569-1.3431-3-3-3H8Zm-1 3c0-.5523.44772-1 1-1h4c.5523 0 1 .4477 1 1v4c0 .5523-.4477 1-1 1H8c-.55228 0-1-.4477-1-1v-4Z" fill="currentColor"></path>
</svg>