<svg xmlns="http://www.w3.org/2000/svg" width="18" height="18" viewBox="4 0 18 18">
    <path d="M13.4142 12.0001 16.5 8.91429c.3905-.39053.3905-1.02369 0-1.41421-.3905-.39053-1.0237-.39053-1.4142-.00001L12 10.5859 8.91423 7.50008c-.39053-.39053-1.02369-.39053-1.41422 0-.39052.39052-.39052 1.02368 0 1.41421l3.08579 3.08581-3.08579 3.0858c-.39052.3905-.39052 1.0237 0 1.4142.39053.3905 1.02369.3905 1.41422 0L12 13.4143l3.0858 3.0858c.3905.3905 1.0237.3905 1.4142 0 .3905-.3905.3905-1.0237 0-1.4142l-3.0858-3.0858Z" fill="currentColor"></path>
</svg>