<svg width="16" height="16" viewBox="2 0 20 20" fill="none" xmlns="http://www.w3.org/2000/svg">
    <path fill-rule="evenodd" clip-rule="evenodd" d="M14.7071 5.29289c-.3905-.39052-1.0237-.39052-1.4142 0L5.29291 13.2929c-.12815.1282-.21907.2887-.26303.4646l-1 4c-.0852.3407.01465.7012.26303.9496.24838.2484.60887.3482.94965.263l4-1c.17583-.0439.33641-.1348.46457-.263l7.99997-7.99999c.3906-.39053.3906-1.02369 0-1.41422l-3-3ZM6.37439 16.6256l.5286-2.1144L14 7.41421 15.5858 9l-7.09703 7.097-2.11438.5286Z" fill="currentColor"></path><path d="M18 19h-7l2-2h5c.5523 0 1 .4477 1 1s-.4477 1-1 1Z" fill="currentColor"></path>
</svg>