<svg width="16" height="16" viewBox="2 0 20 20" fill="none" xmlns="http://www.w3.org/2000/svg">
      <path d="M13 6C13 5.44772 12.5523 5 12 5C11.4477 5 11 5.44772 11 6V11.5858L10.2071 10.7929C9.81658 10.4024 9.18342 10.4024 8.79289 10.7929C8.40237 11.1834 8.40237 11.8166 8.79289 12.2071L12 15.4142L15.2071 12.2071C15.5976 11.8166 15.5976 11.1834 15.2071 10.7929C14.8166 10.4024 14.1834 10.4024 13.7929 10.7929L13 11.5858V6Z" fill="currentColor"></path><path d="M7 8C7 7.44772 6.55228 7 6 7C5.44772 7 5 7.44772 5 8V16C5 17.6569 6.34315 19 8 19H16C17.6569 19 19 17.6569 19 16V8C19 7.44772 18.5523 7 18 7C17.4477 7 17 7.44772 17 8V16C17 16.5523 16.5523 17 16 17H8C7.44772 17 7 16.5523 7 16V8Z" fill="currentColor"></path>
</svg>