<svg width="16" height="16" viewBox="4 0 20 20" fill="none" xmlns="http://www.w3.org/2000/svg">
    <path fill-rule="evenodd" clip-rule="evenodd" d="M13.3419 5.5528c-.8446-.42229-1.8387-.42229-2.6833 0L6.10579 7.8292c-.67757.33878-1.10557 1.03131-1.10557 1.78885v.26393c0 .75752.428 1.45012 1.10557 1.78882l4.55281 2.2764c.8446.4223 1.8387.4223 2.6833 0l4.5527-2.2764c.6776-.3387 1.1056-1.0313 1.1056-1.78882v-.26393c0-.75754-.428-1.45007-1.1056-1.78885l-4.5527-2.2764ZM11.553 7.34166c.2815-.14077.6129-.14077.8944 0l4.5528 2.27639v.26393l-4.5528 2.27642c-.2815.1407-.6129.1407-.8944 0L7.00022 9.88198v-.26393L11.553 7.34166Z" fill="currentColor"></path><path d="M6.44743 14.1056c-.49398-.247-1.09465-.0468-1.34164.4472-.24699.494-.04676 1.0947.44722 1.3416l3.76393 1.882c1.68916.8446 3.67736.8446 5.36656 0l3.7639-1.882c.494-.2469.6942-.8476.4472-1.3416-.2469-.494-.8476-.6942-1.3416-.4472l-3.7639 1.882c-1.1261.563-2.4516.563-3.5777 0l-3.76397-1.882Z" fill="currentColor"></path>
</svg>