<svg xmlns="http://www.w3.org/2000/svg" width="18" height="18" fill="none" viewBox="5 4 15 14">
  <path fill="currentColor" fill-rule="evenodd" d="M19 7.5a3.5 3.5 0 1 1-7 0 3.5 3.5 0 0 1 7 0ZM15 8l-.25-3h1.5L16 8h-1Zm.5 2.25a.75.75 0 1 0 0-1.5.75.75 0 0 0 0 1.5Z" clip-rule="evenodd"/>
  <path fill="currentColor" d="M12 15.69V12.5h1.5v3.81l-1.927 1.927a1.75 1.75 0 0 1-1.237.513H9v-6.44l-2.195-2.194A2.75 2.75 0 0 1 6 8.172V7.25h4.5v1.5H7.642c.058.112.133.215.224.305L10.5 11.69v5.5a.277.277 0 0 0 .013-.012L12 15.689Z"/>
</svg>