<svg width="20" height="20" viewBox="4 0 20 20" fill="none" xmlns="http://www.w3.org/2000/svg">
  <path d="m15.94 7-1.97 1.97 1.06 1.06L17 8.06l1.97 1.97 1.06-1.06L18.06 7l1.97-1.97-1.06-1.06L17 5.94l-1.97-1.97-1.06 1.06L15.94 7ZM12.75 10.25l-.75 1v3.69l-1.487 1.487a.23.23 0 0 1-.013.012V11.25L7.687 7.5H12.5V6H6v1.167c0 .378.123.747.35 1.05L9 11.75V18h1.336c.464 0 .909-.184 1.237-.512L13.5 15.56V11.75l.321-.429-1.071-1.071ZM15 13.5h4V12h-4v1.5ZM19 16.5h-4V15h4v1.5ZM15 19.5h4V18h-4v1.5Z" fill="currentColor"></path>
</svg>