<svg width="18" height="18" viewBox="0 0 22 22" fill="none" xmlns="http://www.w3.org/2000/svg">
    <path fill="currentColor" d="M16.793 7.207a2.536 2.536 0 0 0-3.586 0l-1.5 1.5a1 1 0 1 1-1.414-1.414l1.5-1.5a4.536 4.536 0 1 1 6.414 6.414l-1.5 1.5a1 1 0 0 1-1.414-1.414l1.5-1.5c.99-.99.99-2.596 0-3.586Z"></path><path fill="currentColor" d="M14.707 9.293a1 1 0 0 1 0 1.414l-4 4a1 1 0 0 1-1.414-1.414l4-4a1 1 0 0 1 1.414 0Z"></path><path fill="currentColor" d="M10.793 16.793a2.536 2.536 0 1 1-3.586-3.586l1.5-1.5a1 1 0 1 0-1.414-1.414l-1.5 1.5a4.536 4.536 0 1 0 6.414 6.414l1.5-1.5a1 1 0 0 0-1.414-1.414l-1.5 1.5Z"></path>
</svg>