<svg width="16" height="16" viewBox="4 0 20 20" fill="none" xmlns="http://www.w3.org/2000/svg">
    <path fill="currentColor" fill-rule="evenodd" d="M15.922 6.768a.5.5 0 1 0-.844-.536l-7 11a.5.5 0 1 0 .844.536l1.369-2.15a4 4 0 0 0 5.457-5.02c.067.025.134.051.2.078 1.079.44 1.799 1.054 2.157 1.771a1 1 0 0 0 1.79-.894c-.642-1.283-1.822-2.17-3.192-2.729a10.32 10.32 0 0 0-1.752-.53l.97-1.526Zm-2.46 3.867-2.08 3.268a2 2 0 0 0 2.08-3.268ZM12 8c.12 0 .239.001.358.004l-1.497 2.352a2 2 0 0 0-.833 1.309l-1.49 2.34A3.982 3.982 0 0 1 8 12c0-.493.09-.966.253-1.402a6.8 6.8 0 0 0-.2.078c-1.08.44-1.8 1.054-2.159 1.771a1 1 0 1 1-1.788-.894c.641-1.283 1.82-2.17 3.191-2.729C8.67 8.264 10.305 8 12 8Z" clip-rule="evenodd"></path>
</svg>