<svg xmlns="http://www.w3.org/2000/svg" width="20" height="20" viewBox="0 2 20 20" fill="none">
  <path fill-rule="evenodd" clip-rule="evenodd" d="M9 9.58597L8.70711 9.29308C8.31658 8.90256 7.68342 8.90256 7.29289 9.29308C6.90237 9.6836 6.90237 10.3168 7.29289 10.7073L9.58579 13.0002L6.29289 16.2931C5.90237 16.6836 5.90237 17.3168 6.29289 17.7073C6.68342 18.0978 7.31658 18.0978 7.70711 17.7073L11 14.4144L13.2929 16.7073C13.6834 17.0978 14.3166 17.0978 14.7071 16.7073C15.0976 16.3168 15.0976 15.6836 14.7071 15.2931L14.4142 15.0002L17.2929 12.1215C18.4645 10.9499 18.4645 9.05044 17.2929 7.87887L16.1213 6.70729C14.9497 5.53572 13.0503 5.53572 11.8787 6.70729L9 9.58597ZM13.2929 8.12151C13.6834 7.73098 14.3166 7.73098 14.7071 8.12151L15.8787 9.29308C16.2692 9.6836 16.2692 10.3168 15.8787 10.7073L13 13.586L10.4142 11.0002L13.2929 8.12151Z" fill="currentColor"></path>
</svg>