<svg width="16" height="16" viewBox="0 0 22 22" fill="none" xmlns="http://www.w3.org/2000/svg">
    <path d="M13.2071 3.29297L16.9142 7.00008L13.2071 10.7072L11.7929 9.29297L13.0858 8.00009H9.5C7.84315 8.00009 6.5 9.34324 6.5 11.0001V13.0001C6.5 13.8285 6.83579 14.5785 7.37868 15.1214L5.96447 16.5356C5.05964 15.6308 4.5 14.3808 4.5 13.0001V11.0001C4.5 8.23867 6.73858 6.00009 9.5 6.00009H13.0858L11.7929 4.70718L13.2071 3.29297Z" fill="currentColor"></path><path d="M11.9142 18.0001H15.5C18.2614 18.0001 20.5 15.7615 20.5 13.0001V11.0001C20.5 9.61938 19.9404 8.36938 19.0355 7.46456L17.6213 8.87877C18.1642 9.42166 18.5 10.1717 18.5 11.0001V13.0001C18.5 14.6569 17.1569 16.0001 15.5 16.0001H11.9142L13.2071 14.7072L11.7929 13.293L8.08579 17.0001L11.7929 20.7072L13.2071 19.293L11.9142 18.0001Z" fill="currentColor"></path>
</svg>