<svg width="16" height="16" viewBox="0 0 22 22" fill="none" xmlns="http://www.w3.org/2000/svg">
    <path fill-rule="evenodd" clip-rule="evenodd" d="M5.42292 4.09384C5.05735 3.92324 4.62508 3.989 4.32679 4.2606C4.0285 4.53221 3.92261 4.95644 4.0583 5.33636L6.43818 12L4.0583 18.6637C3.92261 19.0436 4.0285 19.4678 4.32679 19.7394C4.62508 20.011 5.05735 20.0768 5.42292 19.9062L20.4229 12.9062C20.775 12.7419 21 12.3885 21 12C21 11.6115 20.775 11.2581 20.4229 11.0938L5.42292 4.09384ZM8.20476 11L6.74721 6.9189L17.6353 12L6.74721 17.0811L8.20476 13H11C11.5523 13 12 12.5523 12 12C12 11.4477 11.5523 11 11 11H8.20476Z" fill="currentColor"></path>
</svg>