<svg width="16" height="16" viewBox="4 0 20 20" fill="none" xmlns="http://www.w3.org/2000/svg">
    <path d="M5.89449 11.553c.35855.7171 1.07867 1.3306 2.15847 1.7714 1.07697.4395 2.44244.6758 3.94714.6758 1.5046 0 2.8701-.2363 3.9471-.6758 1.0798-.4408 1.7999-1.0543 2.1584-1.7714.247-.494.8477-.6942 1.3417-.4472.494.247.6942.8477.4472 1.3416-.5946 1.1892-1.6519 2.0378-2.8945 2.6009v.9519c0 .5523-.4477 1-1 1s-1-.4477-1-1v-.3042c-.6399.1388-1.3113.229-2 .2728v1.0314c0 .5523-.4477 1-1 1s-1-.4477-1-1v-1.0314c-.6887-.0438-1.36007-.134-1.99999-.2728v.3042c0 .5523-.44772 1-1 1-.55229 0-1-.4477-1-1v-.952c-1.24259-.5631-2.29979-1.4116-2.89437-2.6008-.24699-.4939-.04677-1.0946.44721-1.3416.49398-.247 1.09465-.0468 1.34164.4472Z" fill="currentColor"></path>
</svg>