<svg width="16" height="16" viewBox="0 0 24 24" fill="none" xmlns="http://www.w3.org/2000/svg">
    <path fill-rule="evenodd" clip-rule="evenodd" d="M20.5606 5.17193C20.8354 5.35796 21 5.66818 21 6V16C21 16.4089 20.751 16.7766 20.3714 16.9285L15.3714 18.9285C15.1518 19.0163 14.9082 19.0235 14.6838 18.9487L9.03128 17.0645L4.37139 18.9285C4.0633 19.0517 3.71414 19.0141 3.43937 18.8281C3.1646 18.642 3 18.3318 3 18V8C3 7.5911 3.24895 7.22339 3.62861 7.07152L8.62861 5.07152C8.84821 4.98368 9.09184 4.97652 9.31623 5.05132L14.9687 6.93548L19.6286 5.07152C19.9367 4.94829 20.2859 4.9859 20.5606 5.17193ZM5 8.67703L8 7.47703V12C8 12.5523 8.44772 13 9 13C9.55228 13 10 12.5523 10 12V7.38743L14.6838 8.94868C14.9082 9.02348 15.1518 9.01632 15.3714 8.92848L19 7.47703V15.323L16 16.523V12C16 11.4477 15.5523 11 15 11C14.4477 11 14 11.4477 14 12V16.6126L9.31623 15.0513C9.09184 14.9765 8.84821 14.9837 8.62861 15.0715L5 16.523V8.67703Z" fill="currentColor"></path>
</svg>