<svg width="16" height="16" viewBox="4 0 20 20" fill="none" xmlns="http://www.w3.org/2000/svg">
    <path fill-rule="evenodd" clip-rule="evenodd" d="M12.8502 5.85C12.8502 5.38056 12.4696 5 12.0002 5C11.5307 5 11.1502 5.38056 11.1502 5.85V7.072C10.6703 7.15417 10.2138 7.30473 9.79099 7.51329L9.07289 6.5249C8.79696 6.14512 8.2654 6.06093 7.88561 6.33686C7.50582 6.61279 7.42163 7.14435 7.69756 7.52414L8.41631 8.51342C8.08404 8.85489 7.80015 9.24369 7.57571 9.66874L6.41368 9.29117C5.96721 9.14611 5.48768 9.39044 5.34261 9.83691C5.19755 10.2834 5.44188 10.7629 5.88835 10.908L7.05073 11.2857C7.01735 11.519 7.00008 11.7575 7.00008 12.0001C7.00008 12.2426 7.01735 12.4811 7.05072 12.7144L5.88845 13.092C5.44198 13.2371 5.19765 13.7166 5.34272 14.1631C5.48778 14.6096 5.96731 14.8539 6.41378 14.7088L7.57568 14.3313C7.80011 14.7564 8.084 15.1452 8.41628 15.4867L7.69763 16.4758C7.4217 16.8556 7.50589 17.3871 7.88567 17.6631C8.26546 17.939 8.79702 17.8548 9.07296 17.475L9.79094 16.4868C10.2137 16.6954 10.6703 16.8459 11.1502 16.9281V18.15C11.1502 18.6194 11.5307 19 12.0002 19C12.4696 19 12.8502 18.6194 12.8502 18.15V16.9281C13.33 16.8459 13.7865 16.6953 14.2093 16.4868L14.9273 17.475C15.2033 17.8548 15.7348 17.939 16.1146 17.6631C16.4944 17.3872 16.5786 16.8556 16.3026 16.4758L15.5839 15.4866C15.9162 15.1451 16.2 14.7564 16.4245 14.3314L17.5863 14.7089C18.0328 14.8539 18.5123 14.6096 18.6574 14.1631C18.8025 13.7167 18.5581 13.2371 18.1117 13.0921L16.9494 12.7144C16.9828 12.4811 17.0001 12.2426 17.0001 12.0001C17.0001 11.7575 16.9828 11.5189 16.9494 11.2856L18.1118 10.9079C18.5582 10.7629 18.8026 10.2833 18.6575 9.83687C18.5124 9.39041 18.0329 9.14607 17.5864 9.29114L16.4244 9.6687C16.2 9.24369 15.9161 8.85492 15.5839 8.51347L16.3027 7.52411C16.5786 7.14433 16.4945 6.61276 16.1147 6.33683C15.7349 6.0609 15.2033 6.14509 14.9274 6.52488L14.2092 7.51332C13.7865 7.30477 13.33 7.15421 12.8502 7.07202V5.85ZM9.00008 12.0001C9.00008 10.3432 10.3432 9.00005 12.0001 9.00005C13.6569 9.00005 15.0001 10.3432 15.0001 12.0001C15.0001 13.6569 13.6569 15.0001 12.0001 15.0001C10.3432 15.0001 9.00008 13.6569 9.00008 12.0001Z" fill="currentColor"></path>
</svg>