<svg width="18" height="18" viewBox="2 0 20 20" fill="none" xmlns="http://www.w3.org/2000/svg">
    <path fill-rule="evenodd" clip-rule="evenodd" d="M6.5 5C5.11929 5 4 6.11929 4 7.5V16.5C4 17.8807 5.11929 19 6.5 19H17.5C18.8807 19 20 17.8807 20 16.5V7.5C20 6.11929 18.8807 5 17.5 5H6.5ZM6 7.5C6 7.22386 6.22386 7 6.5 7H17.5C17.7761 7 18 7.22386 18 7.5V16.5C18 16.7761 17.7761 17 17.5 17H6.5C6.22386 17 6 16.7761 6 16.5V7.5ZM13 9H11V15H13V9ZM8 11H10V15H8V11ZM16 12H14V15H16V12Z" fill="currentColor"></path>
</svg>