<svg width="288" height="368" viewBox="0 0 288 368" fill="none" xmlns="http://www.w3.org/2000/svg">
<path opacity="0.3" d="M208 78C206.895 78 206 78.8954 206 80C206 81.1046 206.895 82 208 82H225.125C228.674 82.0001 231.957 83.8808 233.752 86.9424L262.509 136H89.4912L118.248 86.9424L118.421 86.6592C120.249 83.7654 123.437 82.0001 126.875 82H144C145.105 82 146 81.1046 146 80C146 78.8954 145.105 78 144 78H126.875C122.062 78.0001 117.598 80.4713 115.039 84.5225L114.798 84.9199L84.2744 136.988L82.8682 139.389C79.8875 141.956 78 145.757 78 150V176L78.0049 176.361C78.1301 181.303 80.8168 185.607 84.7861 187.999C80.7197 190.449 78 194.907 78 200V226L78.0049 226.361C78.1301 231.303 80.8168 235.607 84.7861 237.999C80.7197 240.449 78 244.907 78 250V276L78.0049 276.361C78.1965 283.926 84.3888 290 92 290H260C267.732 290 274 283.732 274 276V250C274 244.908 271.281 240.45 267.216 238C271.281 235.55 274 231.092 274 226V200C274 194.908 271.281 190.45 267.216 188C271.281 185.55 274 181.092 274 176V150C274 145.758 272.113 141.956 269.133 139.389L267.726 136.988L237.202 84.9199C234.689 80.6337 230.093 78.0001 225.125 78H208ZM260 240C265.523 240 270 244.477 270 250V276C270 281.523 265.523 286 260 286H92C86.6497 286 82.2805 281.798 82.0127 276.515L82 276V250C82 244.477 86.4772 240 92 240H260ZM191 269C189.895 269 189 269.895 189 271C189 272.105 189.895 273 191 273H255L255.204 272.989C256.213 272.887 257 272.036 257 271C257 269.964 256.213 269.113 255.204 269.011L255 269H191ZM105 253C99.4772 253 95 257.477 95 263C95 268.523 99.4772 273 105 273C110.523 273 115 268.523 115 263C115 257.477 110.523 253 105 253ZM105 257C108.314 257 111 259.686 111 263C111 266.314 108.314 269 105 269C101.686 269 99 266.314 99 263C99 259.686 101.686 257 105 257ZM191 253C189.895 253 189 253.895 189 255C189 256.105 189.895 257 191 257H255L255.204 256.989C256.213 256.887 257 256.036 257 255C257 253.964 256.213 253.113 255.204 253.011L255 253H191ZM260 190C265.523 190 270 194.477 270 200V226C270 231.523 265.523 236 260 236H92C86.6497 236 82.2805 231.798 82.0127 226.515L82 226V200C82 194.477 86.4772 190 92 190H260ZM191 219C189.895 219 189 219.895 189 221C189 222.105 189.895 223 191 223H255L255.204 222.989C256.213 222.887 257 222.036 257 221C257 219.964 256.213 219.113 255.204 219.011L255 219H191ZM105 203C99.4772 203 95 207.477 95 213C95 218.523 99.4772 223 105 223C110.523 223 115 218.523 115 213C115 207.477 110.523 203 105 203ZM105 207C108.314 207 111 209.686 111 213C111 216.314 108.314 219 105 219C101.686 219 99 216.314 99 213C99 209.686 101.686 207 105 207ZM191 203C189.895 203 189 203.895 189 205C189 206.105 189.895 207 191 207H255L255.204 206.989C256.213 206.887 257 206.036 257 205C257 203.964 256.213 203.113 255.204 203.011L255 203H191ZM260 140C265.523 140 270 144.477 270 150V176C270 181.523 265.523 186 260 186H92C86.6497 186 82.2805 181.798 82.0127 176.515L82 176V150C82 144.477 86.4772 140 92 140H260ZM191 169C189.895 169 189 169.895 189 171C189 172.105 189.895 173 191 173H255L255.204 172.989C256.213 172.887 257 172.036 257 171C257 169.964 256.213 169.113 255.204 169.011L255 169H191ZM105 153C99.4772 153 95 157.477 95 163C95 168.523 99.4772 173 105 173C110.523 173 115 168.523 115 163C115 157.477 110.523 153 105 153ZM105 157C108.314 157 111 159.686 111 163C111 166.314 108.314 169 105 169C101.686 169 99 166.314 99 163C99 159.686 101.686 157 105 157ZM191 153C189.895 153 189 153.895 189 155C189 156.105 189.895 157 191 157H255L255.204 156.989C256.213 156.887 257 156.036 257 155C257 153.964 256.213 153.113 255.204 153.011L255 153H191Z" fill="white"/>
<path opacity="0.3" d="M176 51C187.046 51 196 59.9543 196 71C196 75.064 194.787 78.844 192.704 82H192.5C186.251 82 182.846 84.0409 180.864 87.0898C178.76 90.3279 178 95.0766 178 101V104.084C183.675 104.56 188 107.027 188 110C188 113.314 182.627 116 176 116C169.373 116 164 113.314 164 110C164 107.027 168.325 104.56 174 104.084V101C174 95.0766 173.24 90.3279 171.136 87.0898C169.154 84.0409 165.749 82 159.5 82H159.296C157.213 78.844 156 75.064 156 71C156 59.9543 164.954 51 176 51ZM176 55C167.163 55 160 62.1634 160 71C160 73.541 160.592 75.9435 161.646 78.0771C167.72 78.5237 171.892 80.9137 174.489 84.9102C175.082 85.8214 175.581 86.8009 176 87.8369C176.419 86.8009 176.918 85.8214 177.511 84.9102C180.108 80.9139 184.28 78.5239 190.353 78.0771C191.407 75.9434 192 73.5411 192 71C192 62.1634 184.837 55 176 55Z" fill="white"/>
</svg>
