<svg width="20" height="20" viewBox="0 0 20 20" fill="none" xmlns="http://www.w3.org/2000/svg">
  <path d="M10.834 14.0974L10.8333 14.1666C10.8333 16.8653 8.69534 19.0646 6.02077 19.1632L5.83332 19.1666H1.66666V17.5H5.83332C7.61849 17.5 9.07589 16.0967 9.16258 14.333L9.16666 14.1666L9.16682 14.0975C9.43777 14.143 9.71612 14.1666 9.99999 14.1666C10.2842 14.1666 10.5628 14.1429 10.834 14.0974ZM18.3333 0.833313V2.49998H14.1667C12.3815 2.49998 10.9241 3.90329 10.8374 5.66695L10.8333 5.83331L10.834 5.90256C10.5628 5.85702 10.2842 5.83331 9.99999 5.83331C9.71612 5.83331 9.43777 5.85697 9.16682 5.90242L9.16666 5.83331C9.16666 3.13465 11.3046 0.935337 13.9792 0.836762L14.1667 0.833313H18.3333Z" fill="currentColor"/>
  <path fill-rule="evenodd" clip-rule="evenodd" d="M9.99999 6.66669C11.8409 6.66669 13.3333 8.15907 13.3333 10C13.3333 11.841 11.8409 13.3334 9.99999 13.3334C8.15904 13.3334 6.66666 11.841 6.66666 10C6.66666 8.15907 8.15904 6.66669 9.99999 6.66669ZM9.99999 8.33335C9.07952 8.33335 8.33332 9.07955 8.33332 10C8.33332 10.9205 9.07952 11.6667 9.99999 11.6667C10.9205 11.6667 11.6667 10.9205 11.6667 10C11.6667 9.07955 10.9205 8.33335 9.99999 8.33335Z" fill="currentColor"/>
</svg>
