<svg width="20" height="20" viewBox="0 0 20 20" fill="none" xmlns="http://www.w3.org/2000/svg">
<g clip-path="url(#clip0_705_494)">
<path fill-rule="evenodd" clip-rule="evenodd" d="M18.8499 13.28C17.3099 11.74 14.8199 11.74 13.2799 13.28C12.7399 13.82 12.3899 14.47 12.2299 15.16H6.96994C5.79994 15.16 4.84994 14.21 4.84994 13.04C4.84994 11.87 5.79994 10.92 6.96994 10.92H13.0299C15.2099 10.92 16.9699 9.16004 16.9699 6.98004C16.9699 4.80004 15.2099 3.04004 13.0299 3.04004H7.76994C7.60994 2.35004 7.25994 1.70004 6.71994 1.16004C5.18994 -0.379963 2.68994 -0.379963 1.14994 1.15004C-0.380059 2.69004 -0.380059 5.19004 1.14994 6.72004C2.68994 8.26004 5.17994 8.26004 6.71994 6.72004C7.25994 6.18004 7.60994 5.53004 7.76994 4.84004H13.0299C14.1999 4.84004 15.1499 5.79004 15.1499 6.96004C15.1499 8.13004 14.1999 9.08004 13.0299 9.08004H6.96994C4.78994 9.08004 3.02994 10.84 3.02994 13.02C3.02994 15.2 4.78994 16.96 6.96994 16.96H12.2299C12.3899 17.65 12.7399 18.3 13.2799 18.84C14.8199 20.38 17.3099 20.38 18.8499 18.84C20.3899 17.3 20.3899 14.81 18.8499 13.27V13.28ZM5.43994 5.44004C4.60994 6.27004 3.26994 6.27004 2.43994 5.44004C1.60994 4.61004 1.60994 3.27004 2.43994 2.44004C3.26994 1.61004 4.60994 1.61004 5.43994 2.44004C6.26994 3.27004 6.26994 4.61004 5.43994 5.44004ZM17.5599 17.56C16.7299 18.39 15.3899 18.39 14.5599 17.56C13.7299 16.73 13.7299 15.39 14.5599 14.56C15.3899 13.73 16.7299 13.73 17.5599 14.56C18.3899 15.39 18.3899 16.73 17.5599 17.56Z" fill="currentColor"/>
</g>
<defs>
<clipPath id="clip0_705_494">
<rect width="20" height="20"/>
</clipPath>
</defs>
</svg>
