<svg xmlns="http://www.w3.org/2000/svg" width="16" height="16" viewBox="1 1 20 20" fill="none" class="">
  <path fill="currentColor" d="M8.99 16.804a2 2 0 0 0-1.794-1.794L7 15a2 2 0 0 0-2 2l.01.196A2 2 0 0 0 7 19a2 2 0 0 0 2-2zm2.005.392a3.999 3.999 0 0 1-7.99 0L3 17a4 4 0 0 1 4-4l.196.005A4 4 0 0 1 11 17zM18.99 16.803A2 2 0 1 0 17 19l.197-.01A2 2 0 0 0 19 17zm2.005.395a4 4 0 0 1-3.797 3.797L17 21a4 4 0 1 1 4-4z"></path><path fill="currentColor" d="M17.225 3.368a1 1 0 1 1 1.55 1.264l-8.85 10.85a1 1 0 0 1-1.55-1.264z"></path><path fill="currentColor" d="M5.368 3.225a1 1 0 0 1 1.407.143l8.85 10.85a1 1 0 0 1-1.55 1.264l-8.85-10.85a1 1 0 0 1 .143-1.407"></path>
</svg>