<svg xmlns="http://www.w3.org/2000/svg" width="16" height="16" viewBox="2 1 18 18" fill="none" class="">
    <path fill="currentColor" fill-rule="evenodd" d="M8.689 4.923a.89.89 0 0 1 .61 1.1L5.744 18.465a.889.889 0 1 1-1.71-.488L7.59 5.534a.89.89 0 0 1 1.099-.61m6.622 0a.89.89 0 0 1 1.1.61l3.555 12.445a.889.889 0 0 1-1.71.488L14.701 6.022a.89.89 0 0 1 .61-1.099M12.89 6.667a.889.889 0 0 0-1.778 0v1.778a.889.889 0 0 0 1.778 0zM12 10.222c.49 0 .889.398.889.89v1.777a.889.889 0 0 1-1.778 0V11.11c0-.49.398-.889.889-.889m.889 5.334a.889.889 0 0 0-1.778 0v1.777a.889.889 0 0 0 1.778 0z" clip-rule="evenodd"></path>
</svg>