<svg xmlns="http://www.w3.org/2000/svg" width="16" height="16" viewBox="2 1 18 18" fill="none" class="">
    <path fill="currentColor" fill-rule="evenodd" d="M6 8.118A1.5 1.5 0 1 1 8.118 6h4.764a1.5 1.5 0 0 1 2.616 1.084l1.418 1.418L17 8.5a1.5 1.5 0 0 1 1 2.618v4.764A1.5 1.5 0 1 1 15.882 18H8.118A1.5 1.5 0 1 1 6 15.882zM8.118 16A2 2 0 0 0 8 15.882V8.118q.061-.056.118-.118h4.764a1.5 1.5 0 0 0 1.202.498l1.418 1.418L15.5 10c0 .444.193.843.5 1.118v4.764a2 2 0 0 0-.118.118z" clip-rule="evenodd"></path>
</svg>