<svg xmlns="http://www.w3.org/2000/svg" width="18" height="18" viewBox="2 1 20 20" fill="none" class="">
    <path fill="currentColor" d="M4 19a1 1 0 0 1 1-1h14a1 1 0 1 1 0 2H5a1 1 0 0 1-1-1"></path><path fill="currentColor" fill-rule="evenodd" d="M13.084 4.458a1.5 1.5 0 0 1 2.12-.037l4.317 4.168a1.5 1.5 0 0 1 .037 2.12L12.518 18H9.112L5.48 14.492a1.5 1.5 0 0 1-.037-2.121zm-2.382 5.346 3.473-3.597 3.597 3.473-3.474 3.597zm2.207 4.912-2.084 2.158L7.228 13.4l2.084-2.158z" clip-rule="evenodd"></path>
</svg>