<svg width="18" height="18" viewBox="-4 -4 16 16" fill="none" xmlns="http://www.w3.org/2000/svg">
  <path d="M7.69505 2.74495C7.69505 4.12495 6.70505 5.00995 5.85005 5.50495C4.87505 6.04495 4.44005 6.38995 4.44005 7.48495V7.94995H2.41505V7.43995C2.41505 5.95495 2.97005 5.29495 4.02005 4.67995C4.95005 4.12495 5.61005 3.62995 5.61005 2.84995C5.61005 2.05495 4.83005 1.57495 4.02005 1.57495C2.92505 1.57495 2.07005 2.17495 2.04005 3.59995H4.88334e-05C4.88334e-05 1.39495 1.72505 -5.42402e-05 4.05005 -5.42402e-05C5.88005 -5.42402e-05 7.69505 0.869946 7.69505 2.74495ZM2.31005 11.0699V8.81995H4.53005V11.0699H2.31005Z" fill="currentColor"/>
</svg>
