<svg width="18" height="21" viewBox="0 0 20 21" fill="none" xmlns="http://www.w3.org/2000/svg">
  <path d="M9.31641 -0.00445557C14.4437 -0.0043241 18.6326 4.06753 18.6328 9.13129C18.6328 11.0051 18.1423 13.5645 17.3984 15.4116L17.1689 15.9809H14.7461C13.5922 15.981 12.7933 16.2285 12.2324 16.5659C11.6733 16.9022 11.2938 17.3619 11.0312 17.8774C10.4869 18.9463 10.4668 20.2024 10.4668 20.9057V21.8149H8.18066V20.9057C8.18066 20.1978 8.16582 18.945 7.62012 17.8784C7.35727 17.3647 6.97585 16.9049 6.40918 16.5678C5.91102 16.2715 5.22615 16.0448 4.27539 15.9926L3.85156 15.9809H1.54102L1.28125 15.5102C0.856893 14.7392 0.544951 13.573 0.336914 12.4477C0.124633 11.2993 7.74801e-06 10.0759 0 9.13129C0.000257241 4.06734 4.19068 -0.00445557 9.31641 -0.00445557ZM9.31641 1.8139C5.15746 1.8139 1.81862 5.10847 1.81836 9.13129C1.81837 9.94253 1.92742 11.0529 2.12402 12.1166C2.27295 12.9223 2.46094 13.6402 2.66113 14.1625H3.85156C5.28738 14.1625 6.43541 14.4686 7.33789 15.0053C8.24277 15.5435 8.84537 16.2804 9.23926 17.0502C9.26988 17.1101 9.29699 17.1716 9.3252 17.2319C9.35311 17.172 9.38086 17.1116 9.41113 17.0522C9.80241 16.284 10.3996 15.5473 11.2959 15.0082C12.1904 14.4703 13.3268 14.1626 14.7461 14.1625H15.9229C16.4628 12.5883 16.8144 10.5871 16.8145 9.13129C16.8142 5.10844 13.4767 1.81403 9.31641 1.8139ZM10.1572 8.42133H12.6797V10.0883H10.1572V12.5903H8.47559V10.0883H5.9541V8.42133H8.47559V5.92328H10.1572V8.42133Z" fill="currentColor"/>
</svg>
