<svg width="23" height="24" viewBox="0 0 23 24" fill="none" xmlns="http://www.w3.org/2000/svg">
<path fill-rule="evenodd" clip-rule="evenodd" d="M0 16.2679L3.51055 13.3779C3.43284 12.9303 3.39233 12.4699 3.39233 12C3.39233 11.5301 3.43284 11.0697 3.51056 10.6221L5.8651e-05 7.73212L2.00006 4.26802L6.25926 5.86366C6.96212 5.27509 7.7676 4.80504 8.64496 4.48423L9.39233 0H13.3923L14.1397 4.48423C15.017 4.80502 15.8225 5.27504 16.5253 5.86357L20.7846 4.26788L22.7846 7.73198L19.2741 10.622C19.3518 11.0696 19.3923 11.5301 19.3923 12C19.3923 12.4699 19.3518 12.9303 19.2741 13.378L22.7847 16.268L20.7847 19.7321L16.5253 18.1364C15.8225 18.7249 15.017 19.195 14.1397 19.5158L13.3923 24H9.39233L8.64496 19.5158C7.76759 19.195 6.9621 18.7249 6.25924 18.1363L2 19.732L0 16.2679ZM11.3923 16C9.1832 16 7.39233 14.2091 7.39233 12C7.39233 9.79086 9.1832 8 11.3923 8C13.6015 8 15.3923 9.79086 15.3923 12C15.3923 14.2091 13.6015 16 11.3923 16Z" fill="currentColor"/>
</svg>
