<svg width="24" height="24" viewBox="0 0 24 24" fill="none" xmlns="http://www.w3.org/2000/svg">
<path d="M12 6C9.49156 6 7.41299 7.84816 7.05471 10.2569L6.95532 10.925L6.29834 11.0823C4.97953 11.3979 4 12.5858 4 14C4 15.6569 5.34315 17 7 17H9V19H7C4.23858 19 2 16.7614 2 14C2 11.8724 3.3281 10.057 5.19963 9.33425C5.94741 6.27222 8.70757 4 12 4C14.5207 4 16.7288 5.33266 17.9605 7.3279C20.3109 8.1403 22 10.3718 22 13C22 16.3137 19.3137 19 16 19H15C12.7909 19 11 17.2091 11 15V12.4142L9.70711 13.7071C9.31658 14.0976 8.68342 14.0976 8.29289 13.7071C7.90237 13.3166 7.90237 12.6834 8.29289 12.2929L12 8.5858L15.7071 12.2929C16.0976 12.6834 16.0976 13.3166 15.7071 13.7071C15.3166 14.0976 14.6834 14.0976 14.2929 13.7071L13 12.4142V15C13 16.1046 13.8954 17 15 17H16C18.2091 17 20 15.2091 20 13C20 11.1494 18.7424 9.59 17.0335 9.13455L16.6147 9.02292L16.4098 8.64091C15.5656 7.06686 13.9066 6 12 6Z" fill="#262626"/>
</svg>
