<svg width="32" height="32" viewBox="0 0 32 32" fill="none" xmlns="http://www.w3.org/2000/svg">
    <path d="M12.5 18.5C14.6415 18.5 16.4318 19.9962 16.8867 22H27C27.5523 22 28 22.4477 28 23C28 23.5523 27.5523 24 27 24H16.8867C16.4318 26.0038 14.6415 27.5 12.5 27.5C10.3585 27.5 8.56815 26.0038 8.11328 24H5C4.44772 24 4 23.5523 4 23C4 22.4477 4.44772 22 5 22H8.11328C8.56815 19.9962 10.3585 18.5 12.5 18.5ZM12.5 20.5C11.1193 20.5 10 21.6193 10 23C10 24.3807 11.1193 25.5 12.5 25.5C13.8807 25.5 15 24.3807 15 23C15 21.6193 13.8807 20.5 12.5 20.5ZM19.5 4.5C21.6415 4.5 23.4318 5.9962 23.8867 8H27C27.5523 8 28 8.44772 28 9C28 9.55228 27.5523 10 27 10H23.8867C23.4318 12.0038 21.6415 13.5 19.5 13.5C17.3585 13.5 15.5682 12.0038 15.1133 10H5C4.44772 10 4 9.55228 4 9C4 8.44772 4.44772 8 5 8H15.1133C15.5682 5.9962 17.3585 4.5 19.5 4.5ZM19.5 6.5C18.1193 6.5 17 7.61929 17 9C17 10.3807 18.1193 11.5 19.5 11.5C20.8807 11.5 22 10.3807 22 9C22 7.61929 20.8807 6.5 19.5 6.5Z" fill="currentColor"/>
</svg>
