<svg width="32" height="32" viewBox="0 0 32 32" fill="none" xmlns="http://www.w3.org/2000/svg">
    <rect x="5" y="5" width="16" height="7.5" rx="3.75" stroke="currentColor" stroke-width="2"/>
    <rect x="11" y="19.5" width="16" height="7.5" rx="3.75" stroke="currentColor" stroke-width="2"/>
    <path d="M13 12.5L19 19.5" stroke="currentColor" stroke-width="2" stroke-linecap="round"/>
    <path d="M17.25 4C19.8734 4 22 6.12665 22 8.75C22 11.3734 19.8734 13.5 17.25 13.5H15.1738L19.459 18.5H23.25C25.8734 18.5 28 20.6266 28 23.25C28 25.8734 25.8734 28 23.25 28H14.75C12.1266 28 10 25.8734 10 23.25C10 20.6266 12.1266 18.5 14.75 18.5H16.8262L12.541 13.5H8.75C6.12665 13.5 4 11.3734 4 8.75C4 6.12665 6.12665 4 8.75 4H17.25ZM14.75 20.5C13.2312 20.5 12 21.7312 12 23.25C12 24.7688 13.2312 26 14.75 26H23.25C24.7688 26 26 24.7688 26 23.25C26 21.7312 24.7688 20.5 23.25 20.5H14.75ZM8.75 6C7.23122 6 6 7.23122 6 8.75C6 10.2688 7.23122 11.5 8.75 11.5H17.25C18.7688 11.5 20 10.2688 20 8.75C20 7.23122 18.7688 6 17.25 6H8.75Z" fill="currentColor"/>
</svg>
