<svg width="32" height="32" viewBox="0 0 32 32" fill="none" xmlns="http://www.w3.org/2000/svg">
<path d="M4 25.3333C5.82423 24.2801 7.89356 23.7256 10 23.7256C12.1064 23.7256 14.1758 24.2801 16 25.3333C17.8242 24.2801 19.8936 23.7256 22 23.7256C24.1064 23.7256 26.1758 24.2801 28 25.3333" stroke="currentColor" stroke-width="2" stroke-linecap="round" stroke-linejoin="round"/>
<path d="M4 8.00027C5.82423 6.94705 7.89356 6.39258 10 6.39258C12.1064 6.39258 14.1758 6.94705 16 8.00027C17.8242 6.94705 19.8936 6.39258 22 6.39258C24.1064 6.39258 26.1758 6.94705 28 8.00027" stroke="currentColor" stroke-width="2" stroke-linecap="round" stroke-linejoin="round"/>
<path d="M4 8V25.3333" stroke="currentColor" stroke-width="2" stroke-linecap="round" stroke-linejoin="round"/>
<path d="M16 8V25.3333" stroke="currentColor" stroke-width="2" stroke-linecap="round" stroke-linejoin="round"/>
<path d="M28 8V25.3333" stroke="currentColor" stroke-width="2" stroke-linecap="round" stroke-linejoin="round"/>
</svg>
