<svg width="32" height="32" viewBox="-5 -5 32 32" fill="none" xmlns="http://www.w3.org/2000/svg">
    <path d="M14.8455 3.92621V5.86711H7.88101C7.00225 5.86719 6.59513 6.98154 7.25867 7.57013L15.8031 13.7998C17.7258 15.5043 16.6625 18.7336 14.1225 18.9041L11.1277 19.105L11.0034 17.1679L13.9983 16.967C14.8447 16.91 15.1992 15.834 14.5585 15.2658L6.01398 9.03623C4.02252 7.27055 5.24435 3.92629 7.88101 3.92621H14.8455Z" fill="currentColor"/>
    <path d="M6.29871 14.2364C8.39684 14.2364 10.0977 15.9743 10.0977 18.1182C10.0977 20.2621 8.39684 22 6.29871 22C4.20059 22 2.49973 20.2621 2.49973 18.1182C2.49973 15.9743 4.20059 14.2364 6.29871 14.2364ZM6.29871 15.6921C4.98739 15.6921 3.92435 16.7783 3.92435 18.1182C3.92435 19.4581 4.98739 20.5443 6.29871 20.5443C7.61004 20.5443 8.67308 19.4581 8.67308 18.1182C8.67308 16.7783 7.61004 15.6921 6.29871 15.6921Z" fill="currentColor"/>
    <path d="M18.6514 2C20.2244 2 21.4997 3.30314 21.4997 4.9104C21.4996 6.51758 20.2243 7.8208 18.6514 7.8208C17.0786 7.8207 15.8032 6.51751 15.8031 4.9104C15.8031 3.3032 17.0785 2.0001 18.6514 2Z" fill="currentColor"/>
</svg>