<svg width="32" height="32" viewBox="0 0 32 32" fill="none" xmlns="http://www.w3.org/2000/svg">
    <rect x="5" y="7" width="22" height="18" rx="4" stroke="currentColor" stroke-width="2"/>
    <path d="M10.5 12.5L13.4697 15.4697C13.7626 15.7626 13.7626 16.2374 13.4697 16.5303L10.5 19.5" stroke="currentColor" stroke-width="2" stroke-linecap="round"/>
    <path d="M18 19H22" stroke="currentColor" stroke-width="2" stroke-linecap="round"/>
    <path d="M23 6C25.7614 6 28 8.23858 28 11V21C28 23.7614 25.7614 26 23 26H9C6.23858 26 4 23.7614 4 21V11C4 8.23858 6.23858 6 9 6H23ZM9 8C7.34315 8 6 9.34315 6 11V21C6 22.6569 7.34315 24 9 24H23C24.6569 24 26 22.6569 26 21V11C26 9.34315 24.6569 8 23 8H9ZM9.79297 11.793C10.1835 11.4024 10.8165 11.4024 11.207 11.793L14.1768 14.7627C14.8601 15.4461 14.8601 16.5539 14.1768 17.2373L11.207 20.207C10.8165 20.5976 10.1835 20.5976 9.79297 20.207C9.40244 19.8165 9.40244 19.1835 9.79297 18.793L12.5859 16L9.79297 13.207C9.40244 12.8165 9.40244 12.1835 9.79297 11.793ZM22 18C22.5523 18 23 18.4477 23 19C23 19.5523 22.5523 20 22 20H18C17.4477 20 17 19.5523 17 19C17 18.4477 17.4477 18 18 18H22Z" fill="currentColor"/>
</svg>
