<svg width="32" height="32" viewBox="0 0 32 32" fill="none" xmlns="http://www.w3.org/2000/svg">
<path d="M25.0003 16.0003C25.0003 14.2204 24.4726 12.4804 23.4837 11.0003C22.4949 9.5204 21.0891 8.3671 19.4447 7.68589C17.8001 7.0047 15.9903 6.82593 14.2445 7.1732C12.4987 7.52047 10.8948 8.37742 9.63609 9.63609C8.37742 10.8948 7.52047 12.4987 7.1732 14.2445C6.82593 15.9903 7.0047 17.8001 7.68589 19.4447C8.3671 21.0891 9.5204 22.4949 11.0003 23.4837C12.4804 24.4726 14.2204 25.0003 16.0003 25.0003C16.5526 25.0003 17.0003 25.4481 17.0003 26.0003C17.0003 26.5526 16.5526 27.0003 16.0003 27.0003C13.8248 27.0003 11.6979 26.3555 9.88902 25.1468C8.08015 23.9382 6.66984 22.2202 5.83726 20.2103C5.00477 18.2005 4.78699 15.9885 5.21128 13.8548C5.63572 11.721 6.68365 9.7604 8.22202 8.22202C9.7604 6.68365 11.721 5.63572 13.8548 5.21128C15.9885 4.78699 18.2005 5.00477 20.2103 5.83726C22.2202 6.66984 23.9382 8.08015 25.1468 9.88902C26.3555 11.6979 27.0003 13.8248 27.0003 16.0003C27.0003 16.5526 26.5526 17.0003 26.0003 17.0003C25.4481 17.0003 25.0003 16.5526 25.0003 16.0003Z" fill="currentColor"/>
</svg>
