<svg width="32" height="32" viewBox="0 0 32 32" fill="none" xmlns="http://www.w3.org/2000/svg">
    <path d="M28 23.3516C28 23.96 27.6332 24.5037 27.0791 24.7354L26.9658 24.7773L20.4658 26.9004C20.201 26.9869 19.9178 26.9975 19.6484 26.9326L19.5342 26.9004L12.999 24.7656L6.96582 26.7363C5.99623 27.0529 5 26.3305 5 25.3105V12.6152C5.00009 12.0153 5.35774 11.4727 5.90918 11.2363L9.18945 9.83105L9.28516 9.79492C9.76885 9.64327 10.299 9.8805 10.5029 10.3564C10.7201 10.8639 10.4848 11.4513 9.97754 11.6689L7 12.9453V24.6211L12.5342 22.8145L12.6484 22.7822C12.8795 22.7265 13.1205 22.7265 13.3516 22.7822L13.4658 22.8145L19.999 24.9482L26 22.9883V13C26 12.4477 26.4477 12 27 12C27.5523 12 28 12.4477 28 13V23.3516Z" fill="currentColor"/>
    <path d="M12 23L12 18C12 17.4477 12.4477 17 13 17C13.5523 17 14 17.4477 14 18V23C14 23.5523 13.5523 24 13 24C12.4477 24 12 23.5523 12 23Z" fill="currentColor"/>
    <path fill-rule="evenodd" clip-rule="evenodd" d="M19 3C22.3137 3 25 5.68629 25 9C25 10.5371 24.4212 11.9384 23.4707 13H23C22.0576 13 21.3756 13.3554 20.8867 14.0664C20.3604 14.8319 20 16.1004 20 18V19C20 19.5523 19.5523 20 19 20C18.4477 20 18 19.5523 18 19V18C18 16.1004 17.6396 14.8319 17.1133 14.0664C16.6244 13.3554 15.9424 13 15 13H14.5293C13.5788 11.9384 13 10.5371 13 9C13 5.68629 15.6863 3 19 3ZM19 5C16.7909 5 15 6.79086 15 9C15 9.74049 15.202 10.4335 15.5527 11.0283C16.8691 11.1651 17.9825 11.8002 18.7617 12.9336C18.7755 12.9536 18.7873 12.9749 18.8008 12.9951C18.8668 12.9984 18.9332 13 19 13H18.8047C18.8729 13.1025 18.9379 13.2083 19 13.3174C19.0621 13.2083 19.1271 13.1025 19.1953 13H19C19.0665 13 19.1326 12.9983 19.1982 12.9951C19.2118 12.9747 19.2244 12.9537 19.2383 12.9336C20.0173 11.8005 21.1303 11.1653 22.4463 11.0283C22.7972 10.4334 23 9.74067 23 9C23 6.79086 21.2091 5 19 5Z" fill="currentColor"/>
</svg>
