<svg xmlns="http://www.w3.org/2000/svg" width="32" height="32" viewBox="0 0 32 32" fill="none">
  <path fill-rule="evenodd" clip-rule="evenodd" d="M16.0003 5.94531L24.3678 8.73449C25.3427 9.05946 26.0003 9.97178 26.0003 10.9994C26.0003 12.027 25.3427 12.9394 24.3678 13.2643L16.0003 16.0535L7.63273 13.2643C6.65784 12.9394 6.00027 12.027 6.00027 10.9994C6.00027 9.97179 6.65784 9.05946 7.63273 8.73449L16.0003 5.94531ZM16.0003 8.0535L8.26518 10.6319C8.10698 10.6846 8.00027 10.8326 8.00027 10.9994C8.00027 11.1662 8.10698 11.3142 8.26518 11.3669L16.0003 13.9453L23.7354 11.3669C23.8936 11.3142 24.0003 11.1662 24.0003 10.9994C24.0003 10.8326 23.8936 10.6846 23.7354 10.6319L16.0003 8.0535Z" fill="currentColor"/>
  <path d="M6.05159 16.6832C6.22624 16.1592 6.79256 15.8761 7.3165 16.0507L16.0003 18.9453L24.684 16.0507C25.208 15.8761 25.7743 16.1592 25.949 16.6832C26.1236 17.2071 25.8404 17.7734 25.3165 17.9481L16.0003 21.0535L6.68404 17.9481C6.1601 17.7734 5.87694 17.2071 6.05159 16.6832Z" fill="currentColor"/>
  <path d="M7.3165 21.0507C6.79256 20.8761 6.22624 21.1592 6.05159 21.6832C5.87694 22.2071 6.1601 22.7734 6.68404 22.9481L16.0003 26.0535L25.3165 22.9481C25.8404 22.7734 26.1236 22.2071 25.949 21.6832C25.7743 21.1592 25.208 20.8761 24.684 21.0507L16.0003 23.9453L7.3165 21.0507Z" fill="currentColor"/>
</svg>
