<svg width="32" height="32" viewBox="0 0 32 32" fill="none" xmlns="http://www.w3.org/2000/svg">
    <path fill-rule="evenodd" clip-rule="evenodd" d="M7 13C7 11.897 7.897 11 9 11C10.103 11 11 11.897 11 13C11 14.103 10.103 15 9 15C7.897 15 7 14.103 7 13ZM19.5 6C21.981 6 24 8.019 24 10.5V15.142C25.721 15.589 27 17.142 27 19C27 21.206 25.206 23 23 23C20.794 23 19 21.206 19 19C19 17.142 20.279 15.589 22 15.142V10.5C22 9.122 20.879 8 19.5 8C18.121 8 17 9.122 17 10.5V21.5C17 23.981 14.981 26 12.5 26C10.019 26 8 23.981 8 21.5V19H10V21.5C10 22.878 11.121 24 12.5 24C13.879 24 15 22.878 15 21.5V10.5C15 8.019 17.019 6 19.5 6ZM23 17C21.897 17 21 17.897 21 19C21 20.103 21.897 21 23 21C24.103 21 25 20.103 25 19C25 17.897 24.103 17 23 17ZM9 9C11.206 9 13 10.794 13 13C13 15.206 11.206 17 9 17C6.794 17 5 15.206 5 13C5 10.794 6.794 9 9 9Z" fill="currentColor"/>
</svg>
