<svg width="32" height="32" viewBox="0 0 32 32" fill="none" xmlns="http://www.w3.org/2000/svg">
    <path fill-rule="evenodd" clip-rule="evenodd" d="M8 18C8 14.6863 10.6863 12 14 12C17.3137 12 20 14.6863 20 18C20 21.3137 17.3137 24 14 24C10.6863 24 8 21.3137 8 18ZM14 14C11.7909 14 10 15.7909 10 18C10 20.2091 11.7909 22 14 22C16.2091 22 18 20.2091 18 18C18 15.7909 16.2091 14 14 14Z" fill="currentColor"/>
    <path d="M21.5 12C22.3284 12 23 11.3284 23 10.5C23 9.67157 22.3284 9 21.5 9C20.6716 9 20 9.67157 20 10.5C20 11.3284 20.6716 12 21.5 12Z" fill="currentColor"/>
    <path fill-rule="evenodd" clip-rule="evenodd" d="M14.8484 7.03228C16.0996 4.63701 18.6076 3 21.5 3C25.6421 3 29 6.35786 29 10.5C29 13.3924 27.363 15.9004 24.9677 17.1516C24.9891 17.4318 25 17.7147 25 18C25 24.0751 20.0751 29 14 29C7.92487 29 3 24.0751 3 18C3 11.9249 7.92487 7 14 7C14.2853 7 14.5682 7.01088 14.8484 7.03228ZM21.5 5C19.1796 5 17.1925 6.43726 16.385 8.47376L16.0935 9.20877L15.3111 9.09468C14.8836 9.03235 14.4459 9 14 9C9.02944 9 5 13.0294 5 18C5 22.9706 9.02944 27 14 27C18.9706 27 23 22.9706 23 18C23 17.5541 22.9676 17.1164 22.9053 16.6889L22.7912 15.9065L23.5262 15.615C25.5627 14.8075 27 12.8204 27 10.5C27 7.46243 24.5376 5 21.5 5Z" fill="currentColor"/>
</svg>
