<svg width="32" height="32" viewBox="0 0 32 32" fill="none" xmlns="http://www.w3.org/2000/svg">
<path fill-rule="evenodd" clip-rule="evenodd" d="M20.9987 8.38134C20.9356 5.39856 18.4979 3 15.5 3C12.9629 3 10.827 4.71789 10.1921 7.05393C7.26044 7.44851 5 9.96028 5 13C5 14.7776 5.77389 16.3747 7 17.4722V26C7 27.6569 8.34315 29 10 29H15V17.4722C16.2261 16.3747 17 14.7776 17 13C17 12.55 16.9505 12.1115 16.8565 11.6898L20 10.118L25 12.618V23C25 23.5523 24.5523 24 24 24H17V26H24C25.6569 26 27 24.6569 27 23V11.382L20.9987 8.38134ZM15.5 5C14.0509 5 12.8075 5.88063 12.2758 7.13592C13.885 7.48438 15.2537 8.47841 16.0973 9.83334L18.9981 8.38293C18.9363 6.50413 17.3938 5 15.5 5ZM10 11V9.12602C8.27477 9.57006 7 11.1362 7 13C7 14.308 7.62676 15.4693 8.60058 16.2008L9 16.5008V19H11V21H9V23H11V25H9V26C9 26.5523 9.44772 27 10 27H13V16.5008L13.3994 16.2008C14.3732 15.4693 15 14.308 15 13C15 11.1362 13.7252 9.57006 12 9.12602V11C12 11.5523 11.5523 12 11 12C10.4477 12 10 11.5523 10 11Z" fill="currentColor"/>
</svg>
