<svg width="32" height="32" viewBox="0 0 32 32" fill="none" xmlns="http://www.w3.org/2000/svg">
    <path d="M16 5C16.4472 5 16.8502 5.17878 17.1621 5.36719C17.489 5.56464 17.8111 5.83115 18.1162 6.13184C18.7278 6.73458 19.3545 7.55493 19.917 8.48145C21.0304 10.3154 22 12.7476 22 15C22 15.5169 21.9792 16.0265 21.9404 16.5264L25.8281 20.4141C26.5782 21.1641 26.9999 22.1815 27 23.2422V26.0654C27 27.2635 25.6648 27.978 24.668 27.3135L19.9951 24.1982C19.579 25.1748 19.2098 25.884 19.0146 26.2383C18.745 26.7277 18.2375 27 17.7168 27H14.2832C13.7625 27 13.255 26.7277 12.9854 26.2383C12.7902 25.8839 12.4201 25.175 12.0039 24.1982L7.33203 27.3135C6.3352 27.978 5 27.2635 5 26.0654V23.2422C5.00012 22.1815 5.42184 21.1641 6.17188 20.4141L10.0586 16.5264C10.0198 16.0265 10 15.5169 10 15C10 12.7476 10.9696 10.3154 12.083 8.48145C12.6455 7.55493 13.2722 6.73458 13.8838 6.13184C14.1889 5.83115 14.511 5.56464 14.8379 5.36719C15.1498 5.17878 15.5528 5 16 5ZM7.58594 21.8281C7.21097 22.2031 7.00012 22.7119 7 23.2422V25.1309L11.2715 22.2832C10.9426 21.3115 10.6325 20.2079 10.4004 19.0127L7.58594 21.8281ZM21.5986 19.0127C21.3665 20.2079 21.0565 21.3114 20.7275 22.2832L25 25.1309V23.2422C24.9999 22.7119 24.789 22.2031 24.4141 21.8281L21.5986 19.0127ZM15.8711 7.07812C15.7195 7.16971 15.5219 7.32531 15.2881 7.55566C14.8216 8.01536 14.2918 8.69529 13.792 9.51855C12.7805 11.1846 12 13.2525 12 15C12 19.6067 13.8728 23.6249 14.5938 25H17.4062C18.1272 23.6249 20 19.6067 20 15C20 13.2525 19.2195 11.1846 18.208 9.51855C17.7082 8.69529 17.1784 8.01536 16.7119 7.55566C16.4781 7.32531 16.2805 7.16971 16.1289 7.07812C16.0699 7.04248 16.0269 7.02301 16 7.01172C15.9731 7.02301 15.9301 7.04248 15.8711 7.07812ZM16 11C16.8284 11 17.5 11.6716 17.5 12.5C17.5 13.3284 16.8284 14 16 14C15.1716 14 14.5 13.3284 14.5 12.5C14.5 11.6716 15.1716 11 16 11Z" fill="currentColor"/>
</svg>
