<svg width="32" height="32" viewBox="0 0 32 32" fill="none" xmlns="http://www.w3.org/2000/svg">
    <path fill-rule="evenodd" clip-rule="evenodd" d="M14.5 6C9.80558 6 6 9.80558 6 14.5C6 19.1944 9.80558 23 14.5 23C16.4869 23 18.3145 22.3183 19.7618 21.176L24.2929 25.7071C24.6834 26.0976 25.3166 26.0976 25.7071 25.7071C26.0976 25.3166 26.0976 24.6834 25.7071 24.2929L21.176 19.7618C22.3183 18.3145 23 16.4869 23 14.5C23 9.80558 19.1944 6 14.5 6ZM8 14.5C8 10.9101 10.9101 8 14.5 8C18.0899 8 21 10.9101 21 14.5C21 18.0899 18.0899 21 14.5 21C10.9101 21 8 18.0899 8 14.5Z" fill="currentColor"/>
</svg>
