<svg width="32" height="32" viewBox="0 0 32 32" fill="none" xmlns="http://www.w3.org/2000/svg">
    <path d="M25 8C25 7.44772 24.5523 7 24 7H8C7.44772 7 7 7.44772 7 8V12C7 12.5523 7.44772 13 8 13H24C24.5523 13 25 12.5523 25 12V8ZM27 12C27 13.6569 25.6569 15 24 15H8C6.34315 15 5 13.6569 5 12V8C5 6.34315 6.34315 5 8 5H24C25.6569 5 27 6.34315 27 8V12Z" fill="currentColor"/>
    <path d="M25 20C25 19.4477 24.5523 19 24 19H8C7.44772 19 7 19.4477 7 20V24C7 24.5523 7.44772 25 8 25H24C24.5523 25 25 24.5523 25 24V20ZM27 24C27 25.6569 25.6569 27 24 27H8C6.34315 27 5 25.6569 5 24V20C5 18.3431 6.34315 17 8 17H24C25.6569 17 27 18.3431 27 20V24Z" fill="currentColor"/>
    <path d="M11 10C11 10.5523 10.5523 11 10 11C9.44772 11 9 10.5523 9 10C9 9.44772 9.44772 9 10 9C10.5523 9 11 9.44772 11 10Z" fill="currentColor"/>
    <path d="M11 22C11 22.5523 10.5523 23 10 23C9.44772 23 9 22.5523 9 22C9 21.4477 9.44772 21 10 21C10.5523 21 11 21.4477 11 22Z" fill="currentColor"/>
    <path d="M9 17V15C9 14.4477 9.44772 14 10 14C10.5523 14 11 14.4477 11 15V17C11 17.5523 10.5523 18 10 18C9.44772 18 9 17.5523 9 17Z" fill="currentColor"/>
    <path d="M21 17V15C21 14.4477 21.4477 14 22 14C22.5523 14 23 14.4477 23 15V17C23 17.5523 22.5523 18 22 18C21.4477 18 21 17.5523 21 17Z" fill="currentColor"/>
</svg>
