<svg width="32" height="32" viewBox="0 0 32 32" fill="none" xmlns="http://www.w3.org/2000/svg">
    <path d="M17.0002 27C17.0002 27.5523 16.5524 28 16.0002 28C15.4481 27.9998 15.0002 27.5522 15.0002 27V24.9424C15.3286 24.9787 15.662 25 16.0002 25C16.3383 25 16.6717 24.9787 17.0002 24.9424V27ZM9.93375 22.6484C10.426 23.0979 10.9698 23.491 11.5529 23.8232L10.3449 25.4863C10.0203 25.933 9.39516 26.0324 8.9484 25.708C8.50183 25.3835 8.40247 24.7583 8.72672 24.3115L9.93375 22.6484ZM23.2755 24.3115C23.6 24.7583 23.5015 25.3834 23.0548 25.708C22.608 26.0325 21.982 25.9331 21.6574 25.4863L20.4484 23.8223C21.0313 23.4901 21.5745 23.0968 22.0666 22.6475L23.2755 24.3115ZM7.18278 17.8135C7.31849 18.4768 7.52997 19.1124 7.80289 19.7139L5.84879 20.3496C5.32363 20.5201 4.75968 20.2331 4.58903 19.708C4.41846 19.183 4.70578 18.6191 5.23063 18.4482L7.18278 17.8135ZM26.7716 18.4482C27.2969 18.6189 27.5839 19.1828 27.4132 19.708C27.2425 20.2331 26.6787 20.5203 26.1535 20.3496L24.1974 19.7139C24.4705 19.1121 24.6818 18.4762 24.8175 17.8125L26.7716 18.4482ZM26.1545 11.6494C26.6796 11.4789 27.2436 11.7668 27.4142 12.292C27.5846 12.8171 27.2976 13.381 26.7726 13.5518L24.8175 14.1865C24.6817 13.5224 24.4698 12.8862 24.1964 12.2842L26.1545 11.6494ZM4.58805 12.292C4.7587 11.7668 5.32359 11.4789 5.84879 11.6494L7.80289 12.2842C7.52973 12.8858 7.31862 13.5219 7.18278 14.1855L5.23063 13.5518C4.70566 13.3811 4.41777 12.817 4.58805 12.292ZM21.6584 6.5127C21.983 6.06607 22.6081 5.96752 23.0548 6.29199C23.5015 6.61662 23.601 7.24172 23.2765 7.68848L22.0666 9.35156C21.5745 8.90231 21.0312 8.50887 20.4484 8.17676L21.6584 6.5127ZM8.94742 6.29199C9.3942 5.96739 10.0202 6.06597 10.3449 6.5127L11.5529 8.17578C10.9698 8.50792 10.426 8.90122 9.93375 9.35059L8.72672 7.68848C8.4023 7.24185 8.5011 6.6167 8.94742 6.29199ZM16.0002 4C16.5524 4 17.0002 4.44772 17.0002 5V7.05664C16.6718 7.02033 16.3382 7 16.0002 7C15.6621 7 15.3286 7.02033 15.0002 7.05664V5C15.0002 4.44785 15.4481 4.00022 16.0002 4Z" fill="currentColor"/>
    <circle cx="16" cy="16" r="8" stroke="#262626" stroke-width="2.25"/>
    <path d="M17.0002 27C17.0002 27.5523 16.5524 28 16.0002 28C15.4481 27.9998 15.0002 27.5522 15.0002 27V24.9424C15.3286 24.9787 15.662 25 16.0002 25C16.3383 25 16.6717 24.9787 17.0002 24.9424V27ZM9.93375 22.6484C10.426 23.0979 10.9698 23.491 11.5529 23.8232L10.3449 25.4863C10.0203 25.933 9.39516 26.0324 8.9484 25.708C8.50183 25.3835 8.40247 24.7583 8.72672 24.3115L9.93375 22.6484ZM23.2755 24.3115C23.6 24.7583 23.5015 25.3834 23.0548 25.708C22.608 26.0325 21.982 25.9331 21.6574 25.4863L20.4484 23.8223C21.0313 23.4901 21.5745 23.0968 22.0666 22.6475L23.2755 24.3115ZM7.18278 17.8135C7.31849 18.4768 7.52997 19.1124 7.80289 19.7139L5.84879 20.3496C5.32363 20.5201 4.75968 20.2331 4.58903 19.708C4.41846 19.183 4.70578 18.6191 5.23063 18.4482L7.18278 17.8135ZM26.7716 18.4482C27.2969 18.6189 27.5839 19.1828 27.4132 19.708C27.2425 20.2331 26.6787 20.5203 26.1535 20.3496L24.1974 19.7139C24.4705 19.1121 24.6818 18.4762 24.8175 17.8125L26.7716 18.4482ZM26.1545 11.6494C26.6796 11.4789 27.2436 11.7668 27.4142 12.292C27.5846 12.8171 27.2976 13.381 26.7726 13.5518L24.8175 14.1865C24.6817 13.5224 24.4698 12.8862 24.1964 12.2842L26.1545 11.6494ZM4.58805 12.292C4.7587 11.7668 5.32359 11.4789 5.84879 11.6494L7.80289 12.2842C7.52973 12.8858 7.31862 13.5219 7.18278 14.1855L5.23063 13.5518C4.70566 13.3811 4.41777 12.817 4.58805 12.292ZM21.6584 6.5127C21.983 6.06607 22.6081 5.96752 23.0548 6.29199C23.5015 6.61662 23.601 7.24172 23.2765 7.68848L22.0666 9.35156C21.5745 8.90231 21.0312 8.50887 20.4484 8.17676L21.6584 6.5127ZM8.94742 6.29199C9.3942 5.96739 10.0202 6.06597 10.3449 6.5127L11.5529 8.17578C10.9698 8.50792 10.426 8.90122 9.93375 9.35059L8.72672 7.68848C8.4023 7.24185 8.5011 6.6167 8.94742 6.29199ZM16.0002 4C16.5524 4 17.0002 4.44772 17.0002 5V7.05664C16.6718 7.02033 16.3382 7 16.0002 7C15.6621 7 15.3286 7.02033 15.0002 7.05664V5C15.0002 4.44785 15.4481 4.00022 16.0002 4Z" fill="currentColor"/>
    <path d="M22.875 16C22.875 12.203 19.797 9.125 16 9.125C12.203 9.125 9.125 12.203 9.125 16C9.125 19.797 12.203 22.875 16 22.875C19.797 22.875 22.875 19.797 22.875 16ZM25.125 16C25.125 21.0396 21.0396 25.125 16 25.125C10.9604 25.125 6.875 21.0396 6.875 16C6.875 10.9604 10.9604 6.875 16 6.875C21.0396 6.875 25.125 10.9604 25.125 16Z" fill="currentColor"/>
</svg>
