<svg width="32" height="32" viewBox="0 0 32 32" fill="none" xmlns="http://www.w3.org/2000/svg">
    <path d="M22.2626 8.82324C22.9461 8.13994 24.0539 8.13991 24.7373 8.82324L27.707 11.793C28.0975 12.1835 28.0975 12.8165 27.707 13.207C27.3165 13.5975 26.6835 13.5975 26.2929 13.207L24.5 11.4141V23C24.5 25.7614 22.2613 28 19.4999 28H13.9999C13.4477 28 12.9999 27.5523 12.9999 27C12.9999 26.4477 13.4477 26 13.9999 26H19.4999C21.1568 26 22.5 24.6568 22.5 23V11.4141L20.707 13.207C20.3165 13.5975 19.6834 13.5975 19.2929 13.207C18.9024 12.8165 18.9024 12.1835 19.2929 11.793L22.2626 8.82324ZM17.9999 4C18.5522 4.00004 18.9999 4.44774 18.9999 5C18.9999 5.55226 18.5522 5.99996 17.9999 6H12.4999C10.8431 6 9.49993 7.34315 9.49993 9V20.5859L11.2929 18.793C11.6834 18.4025 12.3165 18.4025 12.707 18.793C13.0974 19.1835 13.0974 19.8165 12.707 20.207L9.73724 23.1768C9.05385 23.8601 7.94603 23.8601 7.26262 23.1768L4.29289 20.207C3.90237 19.8165 3.90237 19.1835 4.29289 18.793C4.68342 18.4025 5.31645 18.4025 5.70696 18.793L7.49993 20.5859V9C7.49993 6.23858 9.73851 4 12.4999 4H17.9999Z" fill="currentColor"/>
</svg>
