<svg xmlns="http://www.w3.org/2000/svg" width="16" height="16" viewBox="0 0 24 24" fill="none">
    <path fill="currentColor" fill-rule="evenodd" d="M3.568 2h16.864c.253 0 .498 0 .707.017.228.019.498.063.77.201a2 2 0 0 1 .873.874c.139.271.183.541.201.77.017.208.017.454.017.706v.758c0 .208.002.47-.066.726a2 2 0 0 1-.283.62c-.149.218-.348.39-.505.525l-.043.037-6.396 5.543a6 6 0 0 0-.2.178l-.004.003v.004a6 6 0 0 0-.003.269v5.265c.002.138.005.423-.094.69a1.5 1.5 0 0 1-.397.586c-.21.19-.477.294-.605.344l-.035.014-3.4 1.36-.028.01c-.16.064-.335.135-.49.181a1.5 1.5 0 0 1-.756.05 1.5 1.5 0 0 1-.945-.64 1.5 1.5 0 0 1-.235-.721 6 6 0 0 1-.015-.522v-6.617c0-.144 0-.216-.003-.269v-.004l-.003-.003a6 6 0 0 0-.2-.178L1.896 7.234l-.042-.037c-.158-.136-.357-.307-.506-.525a2 2 0 0 1-.283-.62C.999 5.796 1 5.534 1 5.326v-.758c0-.252 0-.498.017-.706.019-.229.063-.499.201-.77a2 2 0 0 1 .874-.874c.272-.138.541-.182.77-.201C3.07 2 3.316 2 3.568 2m-.556 2.011-.001.014C3 4.14 3 4.303 3 4.6v.67a6 6 0 0 0 .002.272l.003.003c.038.036.093.084.201.178l6.396 5.543.043.037c.157.135.356.307.505.525.13.189.225.399.284.62.067.256.066.518.065.726v6.349l3-1.2v-5.149c0-.208-.001-.47.066-.726a2 2 0 0 1 .283-.62c.15-.218.348-.39.506-.525l.042-.037 6.396-5.543c.109-.094.163-.142.201-.178l.003-.003v-.004C21 5.485 21 5.413 21 5.269V4.6c0-.297 0-.459-.01-.575l-.001-.014h-.013A8 8 0 0 0 20.4 4H3.6a8 8 0 0 0-.588.011" clip-rule="evenodd"></path>
</svg>