<svg width="67" height="32" viewBox="0 0 67 32" fill="none" xmlns="http://www.w3.org/2000/svg">
<path fill-rule="evenodd" clip-rule="evenodd" d="M10.7915 7.75C6.89647 7.75 3.97519 10.125 4.00016 14.25H7.62055C7.57061 12.6 8.61927 11 10.7915 11C12.4394 11 13.4881 12.1 13.4881 13.5C13.4881 14.95 12.3395 15.75 10.4919 16.65C8.06997 17.825 6.62182 18.375 4.00016 19.25V24H16.9836V20.75H8.89393C10.1455 20.2276 11.3636 19.654 12.4644 19.125C15.3857 17.725 17.1085 16.15 17.1085 13.325C17.1085 9.925 14.5617 7.75 10.7915 7.75ZM22.7263 11.25H30.2168V8H19.2308V24H22.7263V11.25ZM35.4601 8H31.9645V24H35.4351L41.9518 13.775V24H45.4474V8H41.9518L35.4601 18.225V8ZM63 18H59.3796C58.8303 19.775 57.1574 21 55.185 21C52.3136 21 50.441 18.525 50.441 16C50.441 13.475 52.2637 11 55.2848 11C57.2823 11 58.8303 12.225 59.3796 14H63C62.4757 10.425 59.6543 7.75 55.185 7.75C50.2413 7.75 46.9455 11.225 46.9455 16C46.9455 20.775 50.2413 24.25 55.185 24.25C59.6543 24.25 62.4757 21.625 63 18Z" fill="#262626"/>
</svg>
