<svg width="16" height="16" viewBox="0 0 16 16" fill="none" xmlns="http://www.w3.org/2000/svg">
   <path d="M13.5 0C14.8807 0 16 1.11929 16 2.5V11.5C16 12.8807 14.8807 14 13.5 14H2.5C1.11929 14 3.22128e-08 12.8807 0 11.5V4.5C0 3.11929 1.11929 2 2.5 2H5V4H2.5C2.22386 4 2 4.22386 2 4.5V11.5C2 11.7761 2.22386 12 2.5 12H13.5C13.7761 12 14 11.7761 14 11.5V2.5C14 2.22386 13.7761 2 13.5 2H9.62109C9.48857 2.00006 9.36129 2.05277 9.26758 2.14648L9 2.41406V6.58594L10.293 5.29297L11.707 6.70703L8 10.4141L4.29297 6.70703L5.70703 5.29297L7 6.58594V1.58594L7.85352 0.732422C8.3223 0.263634 8.95813 6.00041e-05 9.62109 0H13.5Z" fill="currentColor"/>
</svg>
