<svg width="18" height="18" viewBox="0 0 20 20" fill="none" xmlns="http://www.w3.org/2000/svg">
<path fill-rule="evenodd" clip-rule="evenodd" d="M13 2C11.8954 2 11 2.89543 11 4V14C11 16.2091 9.20914 18 7 18C4.79086 18 3 16.2091 3 14V12H5V14C5 15.1046 5.89543 16 7 16C8.10457 16 9 15.1046 9 14V4C9 1.79086 10.7909 0 13 0C15.2091 0 17 1.79086 17 4V7.12602C18.7252 7.57006 20 9.13616 20 11C20 13.2091 18.2091 15 16 15C13.7909 15 12 13.2091 12 11C12 9.13616 13.2748 7.57006 15 7.12602V4C15 2.89543 14.1046 2 13 2ZM4 5C2.89543 5 2 5.89543 2 7C2 8.10457 2.89543 9 4 9C5.10457 9 6 8.10457 6 7C6 5.89543 5.10457 5 4 5ZM0 7C0 4.79086 1.79086 3 4 3C6.20914 3 8 4.79086 8 7C8 9.20914 6.20914 11 4 11C1.79086 11 0 9.20914 0 7ZM14 11C14 9.89543 14.8954 9 16 9C17.1046 9 18 9.89543 18 11C18 12.1046 17.1046 13 16 13C14.8954 13 14 12.1046 14 11Z" fill="currentColor"/>
</svg>
