<svg width="16" height="16" viewBox="4 0 20 20" fill="none" xmlns="http://www.w3.org/2000/svg">
    <path fill-rule="evenodd" clip-rule="evenodd" d="M5.89443 12.4472c.35855-.7171 1.07867-1.3306 2.15847-1.7714.06553-.0267.13212-.0527.19974-.0779-.16333.4363-.25263.9088-.25263 1.4021 0 2.2091 1.79086 4 3.99999 4 2.2091 0 4-1.7909 4-4 0-.4933-.0893-.9658-.2526-1.4021.0676.0252.1342.0512.1997.0779 1.0798.4408 1.7999 1.0543 2.1585 1.7714.247.494.8476.6942 1.3416.4472.494-.247.6942-.8476.4472-1.3416-.6414-1.2829-1.8213-2.16938-3.1915-2.72865C15.3299 8.26373 13.6954 8 12 8c-1.6954 0-3.32986.26373-4.70289.82415-1.3702.55927-2.55008 1.44575-3.19153 2.72865-.24699.494-.04677 1.0946.44721 1.3416.49398.247 1.09465.0468 1.34164-.4472ZM12 10c-1.1046 0-2 .8954-2 2s.8954 2 2 2 2-.8954 2-2-.8954-2-2-2Z" fill="currentColor"></path>
</svg>