<svg width="16" height="16" viewBox="0 0 24 24" fill="none" xmlns="http://www.w3.org/2000/svg">
<g clip-path="url(#clip0_68_420)">
<path d="M20.4475 15.1643L22.2356 16.0588L20.4475 16.9534L12.0002 21.177L1.76392 16.0588L3.55298 15.1643L3.88208 15.0002L12.0002 19.0588L20.1184 15.0002L20.4475 15.1643ZM20.4475 11.1057L22.2356 12.0002L20.4475 12.8948L12.0002 17.1184L1.76392 12.0002L3.55298 11.1057L3.88208 10.9407L12.0002 15.0002L20.1184 10.9407L20.4475 11.1057ZM22.2356 8.00024L12.0002 13.1184L1.76392 8.00024L12.0002 2.88208L22.2356 8.00024ZM6.2356 8.00024L12.0002 10.8821L17.7639 8.00024L12.0002 5.11841L6.2356 8.00024Z" fill="currentColor"/>
</g>
<defs>
<clipPath id="clip0_68_420">
<rect width="24" height="24" fill="none"/>
</clipPath>
</defs>
</svg>