<svg width="100" height="50" viewBox="0 0 100 50" fill="none" xmlns="http://www.w3.org/2000/svg">
<path d="M42.3904 39.6877L42.2403 39.5H42H10C4.7533 39.5 0.5 35.2467 0.5 30V10C0.5 4.7533 4.7533 0.5 10 0.5H90C95.2467 0.5 99.5 4.75329 99.5 10V30C99.5 35.2467 95.2467 39.5 90 39.5H58H57.7597L57.6096 39.6877L50 49.1996L42.3904 39.6877Z" fill="white" stroke="black"/>
<rect x="9.5" y="9.5" width="81" height="21" fill="white" stroke="black" stroke-dasharray="4 2"/>
<rect y="15" width="100" height="5" fill="#FF00B8" fill-opacity="0.1"/>
<rect y="25" width="100" height="5" fill="#FF00B8" fill-opacity="0.1"/>
<rect y="10" width="100" height="20" fill="#FF00B8" fill-opacity="0.1"/>
<rect x="80" width="5" height="40" fill="#337CD2" fill-opacity="0.1"/>
<rect x="70" width="5" height="40" fill="#337CD2" fill-opacity="0.1"/>
<rect x="60" width="5" height="40" fill="#337CD2" fill-opacity="0.1"/>
<rect x="60" width="30" height="40" fill="#337CD2" fill-opacity="0.1"/>
<rect x="30" width="5" height="40" fill="#337CD2" fill-opacity="0.1"/>
<rect x="20" width="5" height="40" fill="#337CD2" fill-opacity="0.1"/>
<rect x="10" width="5" height="40" fill="#337CD2" fill-opacity="0.1"/>
<rect x="10" width="30" height="40" fill="#337CD2" fill-opacity="0.1"/>
</svg>
