<svg width="600" height="350" viewBox="0 0 600 350" fill="none" xmlns="http://www.w3.org/2000/svg">
<rect width="600" height="350" fill="#EFEFEF"/>
<path d="M27.2988 304H21.709V303.221L24.6621 299.939C25.0996 299.443 25.4004 299.041 25.5645 298.732C25.7324 298.42 25.8164 298.098 25.8164 297.766C25.8164 297.32 25.6816 296.955 25.4121 296.67C25.1426 296.385 24.7832 296.242 24.334 296.242C23.7949 296.242 23.375 296.396 23.0742 296.705C22.7773 297.01 22.6289 297.436 22.6289 297.982H21.5449C21.5449 297.197 21.7969 296.562 22.3008 296.078C22.8086 295.594 23.4863 295.352 24.334 295.352C25.127 295.352 25.7539 295.561 26.2148 295.979C26.6758 296.393 26.9062 296.945 26.9062 297.637C26.9062 298.477 26.3711 299.477 25.3008 300.637L23.0156 303.115H27.2988V304ZM28.9453 299.723L29.3789 295.469H33.75V296.471H30.2988L30.041 298.797C30.459 298.551 30.9336 298.428 31.4648 298.428C32.2422 298.428 32.8594 298.686 33.3164 299.201C33.7734 299.713 34.002 300.406 34.002 301.281C34.002 302.16 33.7637 302.854 33.2871 303.361C32.8145 303.865 32.1523 304.117 31.3008 304.117C30.5469 304.117 29.9316 303.908 29.4551 303.49C28.9785 303.072 28.707 302.494 28.6406 301.756H29.666C29.7324 302.244 29.9062 302.613 30.1875 302.863C30.4688 303.109 30.8398 303.232 31.3008 303.232C31.8047 303.232 32.1992 303.061 32.4844 302.717C32.7734 302.373 32.918 301.898 32.918 301.293C32.918 300.723 32.7617 300.266 32.4492 299.922C32.1406 299.574 31.7285 299.4 31.2129 299.4C30.7402 299.4 30.3691 299.504 30.0996 299.711L29.8125 299.945L28.9453 299.723ZM40.5352 300.361C40.5352 301.631 40.3184 302.574 39.8848 303.191C39.4512 303.809 38.7734 304.117 37.8516 304.117C36.9414 304.117 36.2676 303.816 35.8301 303.215C35.3926 302.609 35.166 301.707 35.1504 300.508V299.061C35.1504 297.807 35.3672 296.875 35.8008 296.266C36.2344 295.656 36.9141 295.352 37.8398 295.352C38.7578 295.352 39.4336 295.646 39.8672 296.236C40.3008 296.822 40.5234 297.729 40.5352 298.955V300.361ZM39.4512 298.879C39.4512 297.961 39.3223 297.293 39.0645 296.875C38.8066 296.453 38.3984 296.242 37.8398 296.242C37.2852 296.242 36.8809 296.451 36.627 296.869C36.373 297.287 36.2422 297.93 36.2344 298.797V300.531C36.2344 301.453 36.3672 302.135 36.6328 302.576C36.9023 303.014 37.3086 303.232 37.8516 303.232C38.3867 303.232 38.7832 303.025 39.041 302.611C39.3027 302.197 39.4395 301.545 39.4512 300.654V298.879Z" fill="black"/>
<path d="M38.8945 323.412L40.3711 318.66H41.5312L38.9824 325.979C38.5879 327.033 37.9609 327.561 37.1016 327.561L36.8965 327.543L36.4922 327.467V326.588L36.7852 326.611C37.1523 326.611 37.4375 326.537 37.6406 326.389C37.8477 326.24 38.0176 325.969 38.1504 325.574L38.3906 324.93L36.1289 318.66H37.3125L38.8945 323.412Z" fill="black"/>
<path d="M25.2715 204H24.1816V196.775L21.9961 197.578V196.594L25.1016 195.428H25.2715V204ZM28.9453 199.723L29.3789 195.469H33.75V196.471H30.2988L30.041 198.797C30.459 198.551 30.9336 198.428 31.4648 198.428C32.2422 198.428 32.8594 198.686 33.3164 199.201C33.7734 199.713 34.002 200.406 34.002 201.281C34.002 202.16 33.7637 202.854 33.2871 203.361C32.8145 203.865 32.1523 204.117 31.3008 204.117C30.5469 204.117 29.9316 203.908 29.4551 203.49C28.9785 203.072 28.707 202.494 28.6406 201.756H29.666C29.7324 202.244 29.9062 202.613 30.1875 202.863C30.4688 203.109 30.8398 203.232 31.3008 203.232C31.8047 203.232 32.1992 203.061 32.4844 202.717C32.7734 202.373 32.918 201.898 32.918 201.293C32.918 200.723 32.7617 200.266 32.4492 199.922C32.1406 199.574 31.7285 199.4 31.2129 199.4C30.7402 199.4 30.3691 199.504 30.0996 199.711L29.8125 199.945L28.9453 199.723ZM40.5352 200.361C40.5352 201.631 40.3184 202.574 39.8848 203.191C39.4512 203.809 38.7734 204.117 37.8516 204.117C36.9414 204.117 36.2676 203.816 35.8301 203.215C35.3926 202.609 35.166 201.707 35.1504 200.508V199.061C35.1504 197.807 35.3672 196.875 35.8008 196.266C36.2344 195.656 36.9141 195.352 37.8398 195.352C38.7578 195.352 39.4336 195.646 39.8672 196.236C40.3008 196.822 40.5234 197.729 40.5352 198.955V200.361ZM39.4512 198.879C39.4512 197.961 39.3223 197.293 39.0645 196.875C38.8066 196.453 38.3984 196.242 37.8398 196.242C37.2852 196.242 36.8809 196.451 36.627 196.869C36.373 197.287 36.2422 197.93 36.2344 198.797V200.531C36.2344 201.453 36.3672 202.135 36.6328 202.576C36.9023 203.014 37.3086 203.232 37.8516 203.232C38.3867 203.232 38.7832 203.025 39.041 202.611C39.3027 202.197 39.4395 201.545 39.4512 200.654V198.879Z" fill="black"/>
<path d="M29.207 99.7227L29.6406 95.4688H34.0117V96.4707H30.5605L30.3027 98.7969C30.7207 98.5508 31.1953 98.4277 31.7266 98.4277C32.5039 98.4277 33.1211 98.6855 33.5781 99.2012C34.0352 99.7129 34.2637 100.406 34.2637 101.281C34.2637 102.16 34.0254 102.854 33.5488 103.361C33.0762 103.865 32.4141 104.117 31.5625 104.117C30.8086 104.117 30.1934 103.908 29.7168 103.49C29.2402 103.072 28.9688 102.494 28.9023 101.756H29.9277C29.9941 102.244 30.168 102.613 30.4492 102.863C30.7305 103.109 31.1016 103.232 31.5625 103.232C32.0664 103.232 32.4609 103.061 32.7461 102.717C33.0352 102.373 33.1797 101.898 33.1797 101.293C33.1797 100.723 33.0234 100.266 32.7109 99.9219C32.4023 99.5742 31.9902 99.4004 31.4746 99.4004C31.002 99.4004 30.6309 99.5039 30.3613 99.7109L30.0742 99.9453L29.207 99.7227ZM40.7969 100.361C40.7969 101.631 40.5801 102.574 40.1465 103.191C39.7129 103.809 39.0352 104.117 38.1133 104.117C37.2031 104.117 36.5293 103.816 36.0918 103.215C35.6543 102.609 35.4277 101.707 35.4121 100.508V99.0605C35.4121 97.8066 35.6289 96.875 36.0625 96.2656C36.4961 95.6562 37.1758 95.3516 38.1016 95.3516C39.0195 95.3516 39.6953 95.6465 40.1289 96.2363C40.5625 96.8223 40.7852 97.7285 40.7969 98.9551V100.361ZM39.7129 98.8789C39.7129 97.9609 39.584 97.293 39.3262 96.875C39.0684 96.4531 38.6602 96.2422 38.1016 96.2422C37.5469 96.2422 37.1426 96.4512 36.8887 96.8691C36.6348 97.2871 36.5039 97.9297 36.4961 98.7969V100.531C36.4961 101.453 36.6289 102.135 36.8945 102.576C37.1641 103.014 37.5703 103.232 38.1133 103.232C38.6484 103.232 39.0449 103.025 39.3027 102.611C39.5645 102.197 39.7012 101.545 39.7129 100.654V98.8789Z" fill="black"/>
<line x1="550.5" y1="50" x2="550.5" y2="300" stroke="#D4D4D4" stroke-dasharray="1 1"/>
<line x1="45" y1="299.5" x2="50" y2="299.5" stroke="#B4B4B4"/>
<line x1="45" y1="199.5" x2="50" y2="199.5" stroke="#B4B4B4"/>
<line x1="45" y1="99.5" x2="50" y2="99.5" stroke="#B4B4B4"/>
<path d="M49.6464 325.354C49.8417 325.549 50.1583 325.549 50.3536 325.354L53.5355 322.172C53.7308 321.976 53.7308 321.66 53.5355 321.464C53.3403 321.269 53.0237 321.269 52.8284 321.464L50 324.293L47.1716 321.464C46.9763 321.269 46.6597 321.269 46.4645 321.464C46.2692 321.66 46.2692 321.976 46.4645 322.172L49.6464 325.354ZM49.5 25L49.5 325H50.5L50.5 25H49.5Z" fill="#B4B4B4"/>
<path d="M572.947 37.9746L574.354 35.6602H575.619L573.545 38.7949L575.684 42H574.43L572.965 39.627L571.5 42H570.24L572.379 38.7949L570.305 35.6602H571.559L572.947 37.9746Z" fill="black"/>
<path d="M541.207 37.7227L541.641 33.4688H546.012V34.4707H542.561L542.303 36.7969C542.721 36.5508 543.195 36.4277 543.727 36.4277C544.504 36.4277 545.121 36.6855 545.578 37.2012C546.035 37.7129 546.264 38.4062 546.264 39.2812C546.264 40.1602 546.025 40.8535 545.549 41.3613C545.076 41.8652 544.414 42.1172 543.563 42.1172C542.809 42.1172 542.193 41.9082 541.717 41.4902C541.24 41.0723 540.969 40.4941 540.902 39.7559H541.928C541.994 40.2441 542.168 40.6133 542.449 40.8633C542.73 41.1094 543.102 41.2324 543.563 41.2324C544.066 41.2324 544.461 41.0605 544.746 40.7168C545.035 40.373 545.18 39.8984 545.18 39.293C545.18 38.7227 545.023 38.2656 544.711 37.9219C544.402 37.5742 543.99 37.4004 543.475 37.4004C543.002 37.4004 542.631 37.5039 542.361 37.7109L542.074 37.9453L541.207 37.7227ZM552.797 38.3613C552.797 39.6309 552.58 40.5742 552.147 41.1914C551.713 41.8086 551.035 42.1172 550.113 42.1172C549.203 42.1172 548.529 41.8164 548.092 41.2148C547.654 40.6094 547.428 39.707 547.412 38.5078V37.0605C547.412 35.8066 547.629 34.875 548.063 34.2656C548.496 33.6562 549.176 33.3516 550.102 33.3516C551.02 33.3516 551.695 33.6465 552.129 34.2363C552.563 34.8223 552.785 35.7285 552.797 36.9551V38.3613ZM551.713 36.8789C551.713 35.9609 551.584 35.293 551.326 34.875C551.068 34.4531 550.66 34.2422 550.102 34.2422C549.547 34.2422 549.143 34.4512 548.889 34.8691C548.635 35.2871 548.504 35.9297 548.496 36.7969V38.5312C548.496 39.4531 548.629 40.1348 548.895 40.5762C549.164 41.0137 549.57 41.2324 550.113 41.2324C550.648 41.2324 551.045 41.0254 551.303 40.6113C551.564 40.1973 551.701 39.5449 551.713 38.6543V36.8789ZM559.535 38.3613C559.535 39.6309 559.318 40.5742 558.885 41.1914C558.451 41.8086 557.773 42.1172 556.852 42.1172C555.941 42.1172 555.268 41.8164 554.83 41.2148C554.393 40.6094 554.166 39.707 554.15 38.5078V37.0605C554.15 35.8066 554.367 34.875 554.801 34.2656C555.234 33.6562 555.914 33.3516 556.84 33.3516C557.758 33.3516 558.434 33.6465 558.867 34.2363C559.301 34.8223 559.523 35.7285 559.535 36.9551V38.3613ZM558.451 36.8789C558.451 35.9609 558.322 35.293 558.064 34.875C557.807 34.4531 557.398 34.2422 556.84 34.2422C556.285 34.2422 555.881 34.4512 555.627 34.8691C555.373 35.2871 555.242 35.9297 555.234 36.7969V38.5312C555.234 39.4531 555.367 40.1348 555.633 40.5762C555.902 41.0137 556.309 41.2324 556.852 41.2324C557.387 41.2324 557.783 41.0254 558.041 40.6113C558.303 40.1973 558.439 39.5449 558.451 38.6543V36.8789Z" fill="black"/>
<path d="M495.285 39.1348H496.469V40.0195H495.285V42H494.195V40.0195H490.311V39.3809L494.131 33.4688H495.285V39.1348ZM491.541 39.1348H494.195V34.9512L494.066 35.1855L491.541 39.1348ZM497.945 37.7227L498.379 33.4688H502.75V34.4707H499.299L499.041 36.7969C499.459 36.5508 499.934 36.4277 500.465 36.4277C501.242 36.4277 501.859 36.6855 502.316 37.2012C502.773 37.7129 503.002 38.4062 503.002 39.2812C503.002 40.1602 502.764 40.8535 502.287 41.3613C501.814 41.8652 501.152 42.1172 500.301 42.1172C499.547 42.1172 498.932 41.9082 498.455 41.4902C497.979 41.0723 497.707 40.4941 497.641 39.7559H498.666C498.732 40.2441 498.906 40.6133 499.188 40.8633C499.469 41.1094 499.84 41.2324 500.301 41.2324C500.805 41.2324 501.199 41.0605 501.484 40.7168C501.773 40.373 501.918 39.8984 501.918 39.293C501.918 38.7227 501.762 38.2656 501.449 37.9219C501.141 37.5742 500.729 37.4004 500.213 37.4004C499.74 37.4004 499.369 37.5039 499.1 37.7109L498.812 37.9453L497.945 37.7227ZM509.535 38.3613C509.535 39.6309 509.318 40.5742 508.885 41.1914C508.451 41.8086 507.773 42.1172 506.852 42.1172C505.941 42.1172 505.268 41.8164 504.83 41.2148C504.393 40.6094 504.166 39.707 504.15 38.5078V37.0605C504.15 35.8066 504.367 34.875 504.801 34.2656C505.234 33.6562 505.914 33.3516 506.84 33.3516C507.758 33.3516 508.434 33.6465 508.867 34.2363C509.301 34.8223 509.523 35.7285 509.535 36.9551V38.3613ZM508.451 36.8789C508.451 35.9609 508.322 35.293 508.064 34.875C507.807 34.4531 507.398 34.2422 506.84 34.2422C506.285 34.2422 505.881 34.4512 505.627 34.8691C505.373 35.2871 505.242 35.9297 505.234 36.7969V38.5312C505.234 39.4531 505.367 40.1348 505.633 40.5762C505.902 41.0137 506.309 41.2324 506.852 41.2324C507.387 41.2324 507.783 41.0254 508.041 40.6113C508.303 40.1973 508.439 39.5449 508.451 38.6543V36.8789Z" fill="black"/>
<path d="M342.285 37.207H343.1C343.611 37.1992 344.014 37.0645 344.307 36.8027C344.6 36.541 344.746 36.1875 344.746 35.7422C344.746 34.7422 344.248 34.2422 343.252 34.2422C342.783 34.2422 342.408 34.377 342.127 34.6465C341.85 34.9121 341.711 35.2656 341.711 35.707H340.627C340.627 35.0312 340.873 34.4707 341.365 34.0254C341.861 33.5762 342.49 33.3516 343.252 33.3516C344.057 33.3516 344.688 33.5645 345.145 33.9902C345.602 34.416 345.83 35.0078 345.83 35.7656C345.83 36.1367 345.709 36.4961 345.467 36.8438C345.229 37.1914 344.902 37.4512 344.488 37.623C344.957 37.7715 345.318 38.0176 345.572 38.3613C345.83 38.7051 345.959 39.125 345.959 39.6211C345.959 40.3867 345.709 40.9941 345.209 41.4434C344.709 41.8926 344.059 42.1172 343.258 42.1172C342.457 42.1172 341.805 41.9004 341.301 41.4668C340.801 41.0332 340.551 40.4609 340.551 39.75H341.641C341.641 40.1992 341.787 40.5586 342.08 40.8281C342.373 41.0977 342.766 41.2324 343.258 41.2324C343.781 41.2324 344.182 41.0957 344.459 40.8223C344.736 40.5488 344.875 40.1562 344.875 39.6445C344.875 39.1484 344.723 38.7676 344.418 38.502C344.113 38.2363 343.674 38.0996 343.1 38.0918H342.285V37.207ZM352.797 38.3613C352.797 39.6309 352.58 40.5742 352.146 41.1914C351.713 41.8086 351.035 42.1172 350.113 42.1172C349.203 42.1172 348.529 41.8164 348.092 41.2148C347.654 40.6094 347.428 39.707 347.412 38.5078V37.0605C347.412 35.8066 347.629 34.875 348.062 34.2656C348.496 33.6562 349.176 33.3516 350.102 33.3516C351.02 33.3516 351.695 33.6465 352.129 34.2363C352.562 34.8223 352.785 35.7285 352.797 36.9551V38.3613ZM351.713 36.8789C351.713 35.9609 351.584 35.293 351.326 34.875C351.068 34.4531 350.66 34.2422 350.102 34.2422C349.547 34.2422 349.143 34.4512 348.889 34.8691C348.635 35.2871 348.504 35.9297 348.496 36.7969V38.5312C348.496 39.4531 348.629 40.1348 348.895 40.5762C349.164 41.0137 349.57 41.2324 350.113 41.2324C350.648 41.2324 351.045 41.0254 351.303 40.6113C351.564 40.1973 351.701 39.5449 351.713 38.6543V36.8789ZM359.535 38.3613C359.535 39.6309 359.318 40.5742 358.885 41.1914C358.451 41.8086 357.773 42.1172 356.852 42.1172C355.941 42.1172 355.268 41.8164 354.83 41.2148C354.393 40.6094 354.166 39.707 354.15 38.5078V37.0605C354.15 35.8066 354.367 34.875 354.801 34.2656C355.234 33.6562 355.914 33.3516 356.84 33.3516C357.758 33.3516 358.434 33.6465 358.867 34.2363C359.301 34.8223 359.523 35.7285 359.535 36.9551V38.3613ZM358.451 36.8789C358.451 35.9609 358.322 35.293 358.064 34.875C357.807 34.4531 357.398 34.2422 356.84 34.2422C356.285 34.2422 355.881 34.4512 355.627 34.8691C355.373 35.2871 355.242 35.9297 355.234 36.7969V38.5312C355.234 39.4531 355.367 40.1348 355.633 40.5762C355.902 41.0137 356.309 41.2324 356.852 41.2324C357.387 41.2324 357.783 41.0254 358.041 40.6113C358.303 40.1973 358.439 39.5449 358.451 38.6543V36.8789Z" fill="black"/>
<path d="M245.299 42H239.709V41.2207L242.662 37.9395C243.1 37.4434 243.4 37.041 243.564 36.7324C243.732 36.4199 243.816 36.0977 243.816 35.7656C243.816 35.3203 243.682 34.9551 243.412 34.6699C243.143 34.3848 242.783 34.2422 242.334 34.2422C241.795 34.2422 241.375 34.3965 241.074 34.7051C240.777 35.0098 240.629 35.4355 240.629 35.9824H239.545C239.545 35.1973 239.797 34.5625 240.301 34.0781C240.809 33.5938 241.486 33.3516 242.334 33.3516C243.127 33.3516 243.754 33.5605 244.215 33.9785C244.676 34.3926 244.906 34.9453 244.906 35.6367C244.906 36.4766 244.371 37.4766 243.301 38.6367L241.016 41.1152H245.299V42ZM251.797 38.3613C251.797 39.6309 251.58 40.5742 251.146 41.1914C250.713 41.8086 250.035 42.1172 249.113 42.1172C248.203 42.1172 247.529 41.8164 247.092 41.2148C246.654 40.6094 246.428 39.707 246.412 38.5078V37.0605C246.412 35.8066 246.629 34.875 247.062 34.2656C247.496 33.6562 248.176 33.3516 249.102 33.3516C250.02 33.3516 250.695 33.6465 251.129 34.2363C251.562 34.8223 251.785 35.7285 251.797 36.9551V38.3613ZM250.713 36.8789C250.713 35.9609 250.584 35.293 250.326 34.875C250.068 34.4531 249.66 34.2422 249.102 34.2422C248.547 34.2422 248.143 34.4512 247.889 34.8691C247.635 35.2871 247.504 35.9297 247.496 36.7969V38.5312C247.496 39.4531 247.629 40.1348 247.895 40.5762C248.164 41.0137 248.57 41.2324 249.113 41.2324C249.648 41.2324 250.045 41.0254 250.303 40.6113C250.564 40.1973 250.701 39.5449 250.713 38.6543V36.8789ZM258.535 38.3613C258.535 39.6309 258.318 40.5742 257.885 41.1914C257.451 41.8086 256.773 42.1172 255.852 42.1172C254.941 42.1172 254.268 41.8164 253.83 41.2148C253.393 40.6094 253.166 39.707 253.15 38.5078V37.0605C253.15 35.8066 253.367 34.875 253.801 34.2656C254.234 33.6562 254.914 33.3516 255.84 33.3516C256.758 33.3516 257.434 33.6465 257.867 34.2363C258.301 34.8223 258.523 35.7285 258.535 36.9551V38.3613ZM257.451 36.8789C257.451 35.9609 257.322 35.293 257.064 34.875C256.807 34.4531 256.398 34.2422 255.84 34.2422C255.285 34.2422 254.881 34.4512 254.627 34.8691C254.373 35.2871 254.242 35.9297 254.234 36.7969V38.5312C254.234 39.4531 254.367 40.1348 254.633 40.5762C254.902 41.0137 255.309 41.2324 255.852 41.2324C256.387 41.2324 256.783 41.0254 257.041 40.6113C257.303 40.1973 257.439 39.5449 257.451 38.6543V36.8789Z" fill="black"/>
<path d="M95.207 37.7227L95.6406 33.4688H100.012V34.4707H96.5606L96.3027 36.7969C96.7207 36.5508 97.1953 36.4277 97.7266 36.4277C98.5039 36.4277 99.1211 36.6855 99.5781 37.2012C100.035 37.7129 100.264 38.4062 100.264 39.2812C100.264 40.1602 100.025 40.8535 99.5488 41.3613C99.0762 41.8652 98.4141 42.1172 97.5625 42.1172C96.8086 42.1172 96.1934 41.9082 95.7168 41.4902C95.2402 41.0723 94.9688 40.4941 94.9023 39.7559H95.9277C95.9941 40.2441 96.168 40.6133 96.4492 40.8633C96.7305 41.1094 97.1016 41.2324 97.5625 41.2324C98.0664 41.2324 98.4609 41.0605 98.7461 40.7168C99.0352 40.373 99.1797 39.8984 99.1797 39.293C99.1797 38.7227 99.0234 38.2656 98.7109 37.9219C98.4023 37.5742 97.9902 37.4004 97.4746 37.4004C97.002 37.4004 96.6309 37.5039 96.3613 37.7109L96.0742 37.9453L95.207 37.7227ZM106.797 38.3613C106.797 39.6309 106.58 40.5742 106.146 41.1914C105.713 41.8086 105.035 42.1172 104.113 42.1172C103.203 42.1172 102.529 41.8164 102.092 41.2148C101.654 40.6094 101.428 39.707 101.412 38.5078V37.0605C101.412 35.8066 101.629 34.875 102.063 34.2656C102.496 33.6562 103.176 33.3516 104.102 33.3516C105.02 33.3516 105.695 33.6465 106.129 34.2363C106.563 34.8223 106.785 35.7285 106.797 36.9551V38.3613ZM105.713 36.8789C105.713 35.9609 105.584 35.293 105.326 34.875C105.068 34.4531 104.66 34.2422 104.102 34.2422C103.547 34.2422 103.143 34.4512 102.889 34.8691C102.635 35.2871 102.504 35.9297 102.496 36.7969V38.5312C102.496 39.4531 102.629 40.1348 102.895 40.5762C103.164 41.0137 103.57 41.2324 104.113 41.2324C104.648 41.2324 105.045 41.0254 105.303 40.6113C105.564 40.1973 105.701 39.5449 105.713 38.6543V36.8789Z" fill="black"/>
<line x1="50" y1="299.5" x2="550" y2="299.5" stroke="#D4D4D4" stroke-dasharray="1 1"/>
<line x1="550.5" y1="45" x2="550.5" y2="50" stroke="#B4B4B4"/>
<line x1="500.5" y1="44.9515" x2="500.5" y2="49.9515" stroke="#B4B4B4"/>
<line x1="350.5" y1="45" x2="350.5" y2="50" stroke="#B4B4B4"/>
<line x1="250.5" y1="45" x2="250.5" y2="50" stroke="#B4B4B4"/>
<line x1="100.5" y1="44.9515" x2="100.5" y2="49.9515" stroke="#B4B4B4"/>
<path d="M575.352 50.3536C575.547 50.1583 575.547 49.8417 575.352 49.6464L572.17 46.4645C571.974 46.2692 571.658 46.2692 571.462 46.4645C571.267 46.6597 571.267 46.9763 571.462 47.1716L574.291 50L571.462 52.8284C571.267 53.0237 571.267 53.3403 571.462 53.5355C571.658 53.7308 571.974 53.7308 572.17 53.5355L575.352 50.3536ZM24.998 50.5H574.998V49.5H24.998V50.5Z" fill="#B4B4B4"/>
<path d="M41.0586 38.3613C41.0586 39.6309 40.8418 40.5742 40.4082 41.1914C39.9746 41.8086 39.2969 42.1172 38.375 42.1172C37.4648 42.1172 36.791 41.8164 36.3535 41.2148C35.916 40.6094 35.6895 39.707 35.6738 38.5078V37.0605C35.6738 35.8066 35.8906 34.875 36.3242 34.2656C36.7578 33.6562 37.4375 33.3516 38.3633 33.3516C39.2812 33.3516 39.957 33.6465 40.3906 34.2363C40.8242 34.8223 41.0469 35.7285 41.0586 36.9551V38.3613ZM39.9746 36.8789C39.9746 35.9609 39.8457 35.293 39.5879 34.875C39.3301 34.4531 38.9219 34.2422 38.3633 34.2422C37.8086 34.2422 37.4043 34.4512 37.1504 34.8691C36.8965 35.2871 36.7656 35.9297 36.7578 36.7969V38.5312C36.7578 39.4531 36.8906 40.1348 37.1562 40.5762C37.4258 41.0137 37.832 41.2324 38.375 41.2324C38.9102 41.2324 39.3066 41.0254 39.5645 40.6113C39.8262 40.1973 39.9629 39.5449 39.9746 38.6543V36.8789Z" fill="black"/>
<path d="M260.39 249.688L260.24 249.5H260H100C72.6619 249.5 50.5 227.338 50.5 200V100C50.5 72.6619 72.6619 50.5 100 50.5H500C527.338 50.5 549.5 72.6619 549.5 100V200C549.5 227.338 527.338 249.5 500 249.5H340H339.76L339.61 249.688L300 299.2L260.39 249.688Z" fill="white" stroke="black"/>
<rect x="99.5" y="99.5" width="401" height="101" fill="white" stroke="black" stroke-dasharray="4 2"/>
<rect x="100" y="50" width="150" height="200" fill="#0075FF" fill-opacity="0.2"/>
<rect x="350" y="50" width="150" height="200" fill="#0075FF" fill-opacity="0.2"/>
<rect x="50" y="100" width="500" height="100" fill="#FF00B8" fill-opacity="0.2"/>
</svg>
