<svg width="60" height="32" viewBox="0 0 60 32" fill="none" xmlns="http://www.w3.org/2000/svg">
<path fill-rule="evenodd" clip-rule="evenodd" d="M10.8495 7.75C6.92092 7.75 3.97479 10.1252 4.00018 14.2501H7.6513C7.60089 12.6 8.65874 11 10.8495 11C12.5115 11 13.569 12.0999 13.569 13.5001C13.569 14.95 12.4107 15.75 10.5474 16.65C8.10461 17.8248 6.64424 18.375 4.00018 19.2502V24.0001H17.3463V20.4999H8.9358C10.1945 20.1251 11.4286 19.6502 12.5365 19.1249C15.483 17.7251 17.2205 16.15 17.2205 13.3248C17.2205 9.92496 14.6518 7.75 10.8495 7.75ZM34.8222 16.7498V15.5001H26.4117V18.4999H31.1961C30.6924 20.0502 29.0558 21 27.0917 21C23.9439 21 22.1307 18.5499 22.1307 15.9998C22.1307 13.4497 23.9185 11 27.1167 11C28.98 11 30.5415 11.8249 31.1707 13.2499H34.8222C34.1672 10.2749 31.4228 7.75 27.0159 7.75C21.879 7.75 18.6054 11.2251 18.6054 15.9998C18.6054 20.7749 21.9794 24.25 26.89 24.25C32.0019 24.25 34.8222 20.875 34.8222 16.7498ZM36.7363 24.0001H40.2615V7.99986H36.7363V24.0001ZM52.2477 12.7502H55.8992C55.5213 9.69994 52.8268 7.75 48.9241 7.75C44.9705 7.75 42.301 9.59985 42.301 12.6249C42.301 15.975 45.5243 17 47.8158 17.3752C50.0066 17.7251 52.2477 18.0502 52.2477 19.5001C52.2477 20.65 51.2153 21.2498 49.377 21.2498C47.4633 21.2498 46.1288 20.3001 45.6751 19H42.024C42.3765 22.1499 45.5997 24.25 49.2008 24.25C53.1039 24.25 56 22.6 56 19.1249C56 15.3752 52.9527 14.8999 50.0066 14.3998C47.7904 14.025 46.028 13.6751 46.028 12.4499C46.028 11.4501 46.9596 10.7498 48.7979 10.7498C50.9382 10.7498 51.8948 11.6751 52.2477 12.7502Z" fill="#262626"/>
</svg>
